<?xml version="1.0" encoding="UTF-8"?>
<svg id="Layer_2" data-name="Layer 2" xmlns="http://www.w3.org/2000/svg" viewBox="0 0 92.84 178.43">
  <defs>
    <style>
      .cls-1 {
        fill: #febc32;
      }
    </style>
  </defs>
  <g id="Layer_3" data-name="Layer 3">
    <path class="cls-1" d="M89.01,5.98c-8.08-10-26.46-4.84-33-3-5.84,1.64-15.05,4.23-22,12-17.21,19.24.27,46.89-17,64C9.37,86.55-.39,87.41.01,91.98c.46,5.29,13.5,3.74,22,12,14.01,13.62-2.61,36.13,9,55,11.54,18.75,45.52,25.06,56,14,6.25-6.59,5.72-21-1-27-6.79-6.06-15.41.48-24-3-25.47-10.33-24.44-98.27,3-109,8.65-3.38,17.95,1.68,24-5,5.17-5.71,5.04-16.75,0-23Z"/>
  </g>
</svg>