<?xml version="1.0" encoding="UTF-8"?>
<svg id="Layer_2" data-name="Layer 2" xmlns="http://www.w3.org/2000/svg" viewBox="0 0 92.84 178.43">
  <defs>
    <style>
      .cls-1 {
        fill: #febc32;
      }
    </style>
  </defs>
  <g id="Layer_3" data-name="Layer 3">
    <path class="cls-1" d="M3.83,5.98C11.91-4.03,30.29,1.14,36.83,2.98c5.84,1.64,15.05,4.23,22,12,17.21,19.24-.27,46.89,17,64,7.64,7.58,17.4,8.43,17,13-.46,5.29-13.5,3.74-22,12-14.01,13.62,2.61,36.13-9,55-11.54,18.75-45.52,25.06-56,14-6.25-6.59-5.72-21,1-27,6.79-6.06,15.41.48,24-3,25.47-10.33,24.44-98.27-3-109-8.65-3.38-17.95,1.68-24-5C-1.34,23.27-1.21,12.22,3.83,5.98Z"/>
  </g>
</svg>