<?xml version="1.0" encoding="UTF-8"?>
<svg id="Layer_1" data-name="Layer 1" xmlns="http://www.w3.org/2000/svg" viewBox="0 0 389.53 310.72">
  <defs>
    <style>
      .cls-1 {
        fill: #febc32;
      }

      .cls-2 {
        fill: #c5c77c;
      }

      .cls-3 {
        fill: #163913;
      }

      .cls-4 {
        fill: #2c180d;
      }
    </style>
  </defs>
  <path class="cls-2" d="M.19,88.04C-4.97,47.06,99.17-7.79,133.25,17.04c21,15.3,19.46,63.83,1.71,72.95-18.12,9.3-49.76-24.18-61.49-14.91-11.65,9.21,14.54,46.21,3.53,56.24C64.33,142.84,3.89,117.46.19,88.04Z"/>
  <path class="cls-1" d="M232.88,33.73c-.56-8.09,59.16-17.79,113.67-17.17,18.43.21,25.57,1.48,28.21,6.42,8.2,15.38-34.16,53.27-57.01,70.82-30.96,23.77-62.6,38.2-65.65,33.92-4.27-6,51.23-43.96,42.36-65-2.3-5.46-10.15-8.86-25.85-15.65-24.94-10.79-35.5-9.94-35.73-13.33Z"/>
  <path class="cls-1" d="M364.81,112.25c9.62,3.47,16.73,20.72,19.26,26.86,2.26,5.49,5.82,14.13,5.44,22.6-.96,20.98-24.94,15.5-24.75,35.83.09,9,4.86,17.52,2.23,18.72-3.04,1.38-9.21-10.15-18.13-14.55-14.71-7.26-17.71,14.33-33.91,10.85-16.1-3.45-37.63-30.03-37.4-42.59.14-7.49,8.05-11.87,14.82-8.21,6.84,3.7,8,13.18,14.44,19.26,19.1,18.04,65.07-12.32,56.05-39.1-2.84-8.44-10.5-14.59-10.21-21.94.25-6.28,6.16-9.88,12.17-7.72Z"/>
  <path class="cls-3" d="M154.81,250.59c.59,19.35,30.61,34.69,50.04,28.42,7.18-2.32,15.23-8.34,14.36-12.89-1.61-8.38-32.81-8.28-32.72-10.62.1-2.64,39.92,1.46,42.41-7.52,1.76-6.34-14.75-20.29-29.06-18.16-4.38.65-7.95,2.73-10.25,4.07-10.82,6.29-14.8,15.53-15.95,14.94-1.93-.99,12.04-25.7,8.39-28.44-3.55-2.67-27.77,12.52-27.24,30.21Z"/>
  <path class="cls-3" d="M242.43,43.21c5.17,32.77-40.48,68.13-75.19,63.76-12.83-1.62-28.3-9.19-28.27-17.13.04-14.63,52.58-24.38,51.69-28.29-1.01-4.42-66.73,15.16-73.79.83-4.98-10.11,18.37-38.85,43.13-39.81,7.59-.3,14.24,2.06,18.55,3.58,20.21,7.15,29.85,21.43,31.6,20.07,2.94-2.29-28.44-39.42-23.18-45.19,5.13-5.62,50.73,12.23,55.46,42.18Z"/>
  <path class="cls-1" d="M130.98,224.11c8.81,2.21,17.88,47.83-8.36,71.97-15.38,14.15-40.6,18.8-59.73,8.24-29.36-16.2-32.03-61.38-14.6-81.86,8.73-10.26,26.72-19.27,37.21-12.06,10.55,7.25,10.63,28.94,2.38,35.43-5.75,4.52-14.08.51-15.55,3.75-1.77,3.89,7.42,15.71,17.33,16.39,20.17,1.39,32.01-44.2,41.34-41.86Z"/>
  <path class="cls-2" d="M262.76,169.02c-12.24-1.09-55.99,78.49-17,120,24.69,26.28,74.95,29.19,97,6,17.97-18.9,15.77-53.61,9-56-5.97-2.11-15.11,21.03-25,19-12.66-2.6-11.59-43.33-20-44-7.45-.59-12.28,31.1-20,31-11.86-.15-12.42-74.97-24-76Z"/>
  <g>
    <path class="cls-4" d="M56.81,173.16c0-4.5-2.21-6.91-7.31-12.15,2.95-2.01,5.37-6.24,5.37-11.21,0-3.22-.87-4.29-2.62-4.29-4.63,0-5.17,7.72-5.17,18.79,0,5.97.13,12.62,2.01,15.84-5.3,4.43-8.19,6.98-13.02,6.98-6.71,0-10.4-4.03-10.33-9.87.13-18.19.2-24.63.13-27.51-.13-4.9-.74-6.31-1.74-8.25,7.65-5.03,18.59-6.71,28.25-6.71,10.54,0,24.56,2.28,24.56,12.48,0,8.19-6.24,12.35-13.96,13.96,10.6,2.28,16.58,6.98,16.58,14.09s-7.45,11.81-16.78,11.81c-4.16,0-10.07-1.07-13.69-6.98,5.7,0,7.72-3.56,7.72-6.98Z"/>
    <path class="cls-4" d="M108.48,184.16c-3.76,2.01-8.25,2.95-11.81,2.95-8.25,0-12.08-5.1-12.01-12.21.07-6.44.4-10.2.27-15.1-.13-5.03-.27-7.58-1.68-11.54,3.76-2.08,8.93-3.42,12.48-3.42,6.04,0,11.07,3.02,11.07,8.32,0,7.31-.47,15.3-.07,20.33.34,4.36.67,7.31,1.75,10.67ZM85.13,135.38c0-4.16,3.56-6.91,10.67-6.91s10.67,2.75,10.67,6.91c0,5.7-6.51,7.45-10.74,7.45-4.56,0-10.6-2.01-10.6-7.45Z"/>
    <path class="cls-4" d="M137.95,184.16c-3.76,2.01-8.25,2.95-11.81,2.95-8.25,0-12.08-5.1-12.01-12.21.07-12.15.27-19.26.13-28.52-.13-5.03-.27-7.58-1.75-11.54,3.76-2.08,8.93-3.42,12.48-3.42,6.04,0,11.07,3.02,11.07,8.32,0,7.31-.2,25.43.13,33.76.27,4.36.54,7.31,1.74,10.67Z"/>
    <path class="cls-4" d="M167.54,184.16c-3.76,2.01-8.25,2.95-11.81,2.95-8.25,0-12.08-5.1-12.01-12.21.07-12.15.27-19.26.13-28.52-.13-5.03-.27-7.58-1.75-11.54,3.76-2.08,8.93-3.42,12.48-3.42,6.04,0,11.07,3.02,11.07,8.32,0,7.31-.2,25.43.13,33.76.27,4.36.54,7.31,1.74,10.67Z"/>
    <path class="cls-4" d="M216.8,174.63c0,9.93-12.48,12.48-21.41,12.48-15.7,0-23.49-9.33-23.49-20.33,0-12.55,10.87-21.94,26.44-21.94,10.4,0,18.86,4.23,18.86,14.23,0,3.02-1.14,6.17-2.95,8.59-5.5,1.21-14.43,1.54-20-1.74,1.48,4.7,5.17,7.58,10.07,7.58,3.76,0,6.91-2.01,9.93-5.84,1.75,1.41,2.55,4.29,2.55,6.98ZM193.58,161.15c0,1.75.27,3.36.67,4.77,3.42-2.01,5.1-5.44,5.1-8.79,0-1.74-.47-3.09-1.95-3.09-2.75,0-3.83,4.09-3.83,7.11Z"/>
    <path class="cls-4" d="M270.49,171.95c0,5.03.27,6.58,1.21,10.67-3.36,3.62-6.38,4.5-10.94,4.5-10.2,0-10.47-4.76-13.15-9.73,3.62-7.18,4.9-21.61,0-21.61-2.21,0-4.03,3.02-4.03,7.72s1.68,9.53,4.03,13.89c-3.22,8.25-8.86,9.66-11.88,9.66-7.18,0-13.56-8.12-13.56-20.27,0-10.2,4.5-21.94,17.72-21.94,2.21,0,7.72,1.01,10,5.37-.87-5.97-.94-8.59-.94-11.88,0-4.09,2.42-6.91,9.4-6.91,4.83,0,9.39,1.21,13.35,4.5-.94,4.09-1.21,5.64-1.21,10.67v25.37Z"/>
    <path class="cls-4" d="M321.37,174.63c0,9.93-12.48,12.48-21.41,12.48-15.7,0-23.49-9.33-23.49-20.33,0-12.55,10.87-21.94,26.44-21.94,10.4,0,18.86,4.23,18.86,14.23,0,3.02-1.14,6.17-2.95,8.59-5.5,1.21-14.43,1.54-20-1.74,1.48,4.7,5.17,7.58,10.07,7.58,3.76,0,6.91-2.01,9.93-5.84,1.75,1.41,2.55,4.29,2.55,6.98ZM298.15,161.15c0,1.75.27,3.36.67,4.77,3.42-2.01,5.1-5.44,5.1-8.79,0-1.74-.47-3.09-1.95-3.09-2.75,0-3.83,4.09-3.83,7.11Z"/>
    <path class="cls-4" d="M338.28,144.84c3.22,0,8.39,1.54,11.68,7.72.2.87.2,5.3.2,7.45-.07,5.23-.07,8.46,0,14.16.07,3.36,0,6.64,1.14,10-3.29,2.01-7.11,2.95-10.07,2.95-9.06,0-13.42-4.76-13.15-11.54.27-6.11.47-11.27.47-18.32,0-2.95.13-5.84-1.48-8.72,2.82-2.75,6.78-3.69,11.21-3.69ZM358.28,144.84c4.56,0,7.85,2.48,7.85,7.92,0,4.63-3.29,7.78-6.78,7.78-4.09,0-6.71-2.75-9.4-7.99,1.14-4.7,5.23-7.72,8.32-7.72Z"/>
  </g>
</svg>