<?xml version="1.0" encoding="UTF-8"?>
<svg id="Layer_1" data-name="Layer 1" xmlns="http://www.w3.org/2000/svg" viewBox="0 0 571.03 91.3">
  <defs>
    <style>
      .cls-1 {
        fill: #2c180d;
      }
    </style>
  </defs>
  <path class="cls-1" d="M190.06,25.27c.14-5.3.09-11.72-.05-16.6-.09-2.81-.66-5.25-1.08-6.56,2.77-1.59,5.86-2.11,8.49-2.11,3.52,0,7.55,1.27,10.08,3.24-2.2,1.83-3.52,4.22-3.52,7.13,0,2.72,1.36,4.55,3.42,4.55,2.2,0,3.66-1.78,3.66-4.5s-1.36-5.25-3.56-7.17c2.63-2.06,6.89-3.24,10.55-3.24,4.6,0,7.31,1.5,8.35,2.11-.42,1.36-1.03,3.7-1.12,6.66-.19,4.88-.19,11.3-.05,16.6.09,3.99.75,7.36,1.27,9.1-.98.94-3.75,2.11-8.35,2.11-3.66,0-7.92-1.17-10.55-3.24,2.2-2.16,3.56-4.92,3.56-8.11,0-2.72-1.45-4.5-3.66-4.5-2.06,0-3.42,1.83-3.42,4.55,0,3.28,1.31,6,3.52,8.06-2.53,1.97-6.56,3.24-10.08,3.24-2.72,0-5.86-.7-8.72-2.11.52-1.74,1.17-5.21,1.27-9.19Z"/>
  <path class="cls-1" d="M279.44,28.04c.05,4.97-2.95,8.53-9.33,8.53-1.97,0-4.5-.42-7.13-3.84,2.91-2.91,4.08-11.58,4.08-15.47,0-2.77-.61-4.13-1.97-4.13-2.77,0-4.36,5.49-4.36,10.6,0,3.8.66,6.71,2.25,9-2.91,2.91-6.85,3.84-8.02,3.84s-4.55-1.08-7.5-3.84c1.88-2.3,2.86-5.21,2.86-9,0-5.11-1.17-10.6-4.13-10.6-1.59,0-2.11,1.36-2.11,4.13,0,3.89.8,12.57,3.38,15.47-2.34,3.42-5.25,3.84-7.27,3.84-6.89,0-8.63-3.56-8.58-8.53.09-10.64.19-14.72.09-17.58-.09-3.05-.19-4.55-1.22-6.94,4.03-2.53,6.99-3.52,11.39-3.52,6.89,0,10.97,2.67,13.46,8.86,2.67-6.56,7.13-8.86,13.55-8.86,4.41,0,7.64.98,11.68,3.52-1.03,2.39-1.17,3.85-1.22,6.94-.09,5.72,0,10.08.09,17.58Z"/>
  <path class="cls-1" d="M333.27,28.04c.05,4.97-2.95,8.53-9.33,8.53-1.97,0-4.5-.42-7.13-3.84,2.91-2.91,4.08-11.58,4.08-15.47,0-2.77-.61-4.13-1.97-4.13-2.77,0-4.36,5.49-4.36,10.6,0,3.8.66,6.71,2.25,9-2.91,2.91-6.85,3.84-8.02,3.84s-4.55-1.08-7.5-3.84c1.88-2.3,2.86-5.21,2.86-9,0-5.11-1.17-10.6-4.13-10.6-1.59,0-2.11,1.36-2.11,4.13,0,3.89.8,12.57,3.38,15.47-2.34,3.42-5.25,3.84-7.27,3.84-6.89,0-8.63-3.56-8.58-8.53.09-10.64.19-14.72.09-17.58-.09-3.05-.19-4.55-1.22-6.94,4.03-2.53,6.99-3.52,11.4-3.52,6.89,0,10.97,2.67,13.46,8.86,2.67-6.56,7.13-8.86,13.55-8.86,4.41,0,7.64.98,11.68,3.52-1.03,2.39-1.17,3.85-1.22,6.94-.09,5.72,0,10.08.09,17.58Z"/>
  <path class="cls-1" d="M337.69,30.67c0-3.89,2.81-5.91,6.33-5.91s6.33,2.02,6.33,5.91-2.81,5.91-6.33,5.91-6.33-2.02-6.33-5.91Z"/>
  <path class="cls-1" d="M353.16,30.67c0-3.89,2.81-5.91,6.33-5.91s6.33,2.02,6.33,5.91-2.81,5.91-6.33,5.91-6.33-2.02-6.33-5.91Z"/>
  <path class="cls-1" d="M368.64,30.67c0-3.89,2.81-5.91,6.33-5.91s6.33,2.02,6.33,5.91-2.81,5.91-6.33,5.91-6.33-2.02-6.33-5.91Z"/>
  <path class="cls-1" d="M1.27,79.98c.14-5.3.09-11.72-.05-16.6-.09-2.81-.66-5.25-1.08-6.56,2.77-1.59,5.86-2.11,8.49-2.11,3.52,0,7.55,1.27,10.08,3.24-2.2,1.83-3.52,4.22-3.52,7.13,0,2.72,1.36,4.55,3.42,4.55,2.2,0,3.66-1.78,3.66-4.5s-1.36-5.25-3.56-7.17c2.63-2.06,6.89-3.24,10.55-3.24,4.6,0,7.31,1.5,8.35,2.11-.42,1.36-1.03,3.7-1.12,6.66-.19,4.88-.19,11.3-.05,16.6.09,3.99.75,7.36,1.27,9.1-.98.94-3.75,2.11-8.35,2.11-3.66,0-7.92-1.17-10.55-3.24,2.2-2.16,3.56-4.92,3.56-8.11,0-2.72-1.45-4.5-3.66-4.5-2.06,0-3.42,1.83-3.42,4.55,0,3.28,1.31,6,3.52,8.07-2.53,1.97-6.56,3.24-10.08,3.24-2.72,0-5.86-.7-8.72-2.11.52-1.74,1.17-5.21,1.27-9.19Z"/>
  <path class="cls-1" d="M39.81,68.59c0-5.25,3.84-6.85,8.96-6.85,3.52,0,6,.89,8.58,3.47-1.36,1.78-2.63,5.25-2.63,9.28,0,3.38.89,5.2,2.53,5.2,1.55,0,2.72-1.64,2.72-5.34,0-3.99-1.36-7.5-2.63-9.14,2.58-2.58,5.06-3.47,8.58-3.47,5.11,0,8.96,1.59,8.96,6.85,0,6.42-5.67,15.71-11.77,21.99-4.27.98-6.75.94-11.54,0-6.1-6.28-11.77-15.57-11.77-21.99Z"/>
  <path class="cls-1" d="M76.77,76.04c0-7.88,5.53-14.3,17.82-14.3s17.82,6.42,17.82,14.3c0,8.44-5.53,15.24-17.82,15.24s-17.82-6.8-17.82-15.24ZM97.49,76.04c0-3.94-1.13-7.17-2.91-7.17s-2.91,3.24-2.91,7.17c0,4.5,1.13,8.11,2.91,8.11s2.91-3.61,2.91-8.11Z"/>
  <path class="cls-1" d="M123.29,61.74c2.25,0,5.86,1.08,8.16,5.39.14.61.14,3.7.14,5.21-.05,3.66-.05,5.91,0,9.89.05,2.34,0,4.64.8,6.99-2.3,1.41-4.97,2.06-7.03,2.06-6.33,0-9.38-3.33-9.19-8.06.19-4.27.33-7.88.33-12.8,0-2.06.09-4.08-1.03-6.1,1.97-1.92,4.74-2.58,7.83-2.58ZM137.26,61.74c3.19,0,5.49,1.74,5.49,5.53,0,3.24-2.3,5.44-4.74,5.44-2.86,0-4.69-1.92-6.56-5.58.8-3.28,3.66-5.39,5.81-5.39Z"/>
  <path class="cls-1" d="M162.44,61.74c4.22,0,8.44,1.92,9.85,7.92-1.17,3.52-1.31,6.42-1.22,12.57.05,3.14.09,4.83.8,6.99-2.3,1.41-4.83,2.06-7.41,2.06-5.81,0-9-3.33-8.81-8.06.33-7.97.28-6.85.33-12.8,0-2.63,0-4.22-1.03-6.1,1.88-1.78,4.78-2.58,7.5-2.58ZM190.39,89.22c-2.63,1.41-5.77,2.06-8.25,2.06-5.11,0-7.36-3.56-7.31-8.53,0-.61.19-7.08.23-9.75.05-1.97.09-3.56-2.77-3.33,1.88-6.38,6.28-7.92,9.28-7.92,4.5,0,7.74,3,7.55,7.92-.56,2.86-.7,6.24-.42,12.1.14,3.33.61,5.21,1.69,7.46ZM208.91,89.22c-2.63,1.41-5.77,2.06-8.25,2.06-5.77,0-8.25-3.56-8.25-8.53,0-.61.09-7.08-.05-9.75-.09-1.83-.38-3.52-3.24-3.33,2.06-6.38,6.89-7.92,10.22-7.92,4.97,0,8.53,3.42,8.35,9-.23,6.75-.23,3.47,0,11.02.09,3.33.14,5.21,1.22,7.46Z"/>
  <path class="cls-1" d="M211.4,76.04c0-7.88,5.53-14.3,17.82-14.3s17.82,6.42,17.82,14.3c0,8.44-5.53,15.24-17.82,15.24s-17.82-6.8-17.82-15.24ZM232.13,76.04c0-3.94-1.13-7.17-2.91-7.17s-2.91,3.24-2.91,7.17c0,4.5,1.13,8.11,2.91,8.11s2.91-3.61,2.91-8.11Z"/>
  <path class="cls-1" d="M257.59,61.74c4.22,0,8.44,1.92,9.85,7.92-1.17,3.52-1.31,6.42-1.22,12.57.05,3.14.09,4.83.8,6.99-2.3,1.41-4.83,2.06-7.41,2.06-5.81,0-9-3.33-8.81-8.06.33-7.97.28-6.85.33-12.8,0-2.63,0-4.22-1.03-6.1,1.88-1.78,4.78-2.58,7.5-2.58ZM287.23,89.22c-2.63,1.41-5.77,2.06-8.25,2.06-5.77,0-8.3-3.56-8.25-8.53,0-.61.09-7.08-.05-9.75-.09-1.83-.38-3.52-3.24-3.33,2.06-6.38,6.89-7.92,10.22-7.92,4.97,0,8.53,3.42,8.35,9-.23,6.75-.19,3.47,0,11.02.09,3.33.14,5.21,1.22,7.46Z"/>
  <path class="cls-1" d="M331.02,80.97c0,5.67-6.14,10.32-18.05,10.32-4.92,0-12.71-.89-12.71-5.77,0-2.16,1.55-4.17,4.03-5.2,1.97,1.88,4.5,2.53,7.36,2.53,2.39,0,3.47-.33,3.47-1.78s-1.08-1.92-3.28-1.92-5.77.47-7.55,1.17c-1.64-1.69-3.05-4.83-3.05-7.74,0-6.38,7.03-10.83,17.44-10.83,5.16,0,11.96,1.22,11.96,5.67,0,1.69-.94,3.75-3.89,4.69-1.69-1.92-4.31-2.58-6.75-2.58s-3.28.66-3.28,1.64.8,1.73,3.89,1.73c2.02,0,4.92-.33,6.14-.8,3.05,3,4.27,6.24,4.27,8.86Z"/>
  <path class="cls-1" d="M351.47,89.22c-2.63,1.41-5.77,2.06-8.25,2.06-5.77,0-8.44-3.56-8.39-8.53.05-4.5.28-7.13.19-10.55-.09-3.52-.19-5.3-1.17-8.07,2.63-1.45,6.24-2.39,8.72-2.39,4.22,0,7.74,2.11,7.74,5.81,0,5.11-.33,10.69-.05,14.21.23,3.05.47,5.11,1.22,7.46ZM335.15,55.13c0-2.91,2.49-4.83,7.46-4.83s7.46,1.92,7.46,4.83c0,3.99-4.55,5.21-7.5,5.21-3.19,0-7.41-1.41-7.41-5.21Z"/>
  <path class="cls-1" d="M388.52,80.69c0,3.52.19,4.59.84,7.46-2.34,2.53-4.45,3.14-7.64,3.14-7.13,0-7.32-3.33-9.19-6.8,2.53-5.02,3.42-15.1,0-15.1-1.55,0-2.81,2.11-2.81,5.39s1.17,6.66,2.81,9.71c-2.25,5.77-6.19,6.75-8.3,6.75-5.02,0-9.47-5.67-9.47-14.16,0-7.13,3.14-15.33,12.38-15.33,1.55,0,5.39.7,6.99,3.75-.61-4.17-.66-6-.66-8.3,0-2.86,1.69-4.83,6.56-4.83,3.38,0,6.56.84,9.33,3.14-.66,2.86-.84,3.94-.84,7.46v17.72Z"/>
  <path class="cls-1" d="M424.06,82.56c0,6.94-8.72,8.72-14.96,8.72-10.97,0-16.41-6.52-16.41-14.21,0-8.77,7.6-15.33,18.47-15.33,7.27,0,13.18,2.95,13.18,9.94,0,2.11-.8,4.31-2.06,6-3.84.84-10.08,1.08-13.97-1.22,1.03,3.28,3.61,5.3,7.03,5.3,2.63,0,4.83-1.41,6.94-4.08,1.22.98,1.78,3,1.78,4.88ZM407.84,73.14c0,1.22.19,2.34.47,3.33,2.39-1.41,3.56-3.8,3.56-6.14,0-1.22-.33-2.16-1.36-2.16-1.92,0-2.67,2.86-2.67,4.97Z"/>
  <path class="cls-1" d="M435.55,61.74c4.22,0,8.44,1.92,9.85,7.92-1.17,3.52-1.31,6.42-1.22,12.57.05,3.14.09,4.83.8,6.99-2.3,1.41-4.83,2.06-7.41,2.06-5.81,0-9-3.33-8.82-8.06.33-7.97.28-6.85.33-12.8,0-2.63,0-4.22-1.03-6.1,1.88-1.78,4.78-2.58,7.5-2.58ZM465.19,89.22c-2.63,1.41-5.77,2.06-8.25,2.06-5.77,0-8.3-3.56-8.25-8.53,0-.61.09-7.08-.05-9.75-.09-1.83-.38-3.52-3.24-3.33,2.06-6.38,6.89-7.92,10.22-7.92,4.97,0,8.53,3.42,8.35,9-.24,6.75-.19,3.47,0,11.02.09,3.33.14,5.21,1.22,7.46Z"/>
  <path class="cls-1" d="M509.36,82.56c0,6.94-8.72,8.72-14.96,8.72-10.97,0-16.41-6.52-16.41-14.21,0-8.77,7.6-15.33,18.48-15.33,7.27,0,13.18,2.95,13.18,9.94,0,2.11-.8,4.31-2.06,6-3.84.84-10.08,1.08-13.97-1.22,1.03,3.28,3.61,5.3,7.03,5.3,2.63,0,4.83-1.41,6.94-4.08,1.22.98,1.78,3,1.78,4.88ZM493.14,73.14c0,1.22.19,2.34.47,3.33,2.39-1.41,3.56-3.8,3.56-6.14,0-1.22-.33-2.16-1.36-2.16-1.92,0-2.67,2.86-2.67,4.97Z"/>
  <path class="cls-1" d="M521.18,61.74c2.25,0,5.86,1.08,8.16,5.39.14.61.14,3.7.14,5.21-.05,3.66-.05,5.91,0,9.89.05,2.34,0,4.64.8,6.99-2.3,1.41-4.97,2.06-7.03,2.06-6.33,0-9.38-3.33-9.19-8.06.19-4.27.33-7.88.33-12.8,0-2.06.09-4.08-1.03-6.1,1.97-1.92,4.74-2.58,7.83-2.58ZM535.16,61.74c3.19,0,5.49,1.74,5.49,5.53,0,3.24-2.3,5.44-4.74,5.44-2.86,0-4.69-1.92-6.56-5.58.8-3.28,3.66-5.39,5.81-5.39Z"/>
  <path class="cls-1" d="M556.82,79.47c-3.89-1.83-5.53-5.44-4.92-9.66,2.67.47,6.33-1.45,6.33-4.03,0-1.74-1.08-2.06-2.02-2.06-3.09,0-4.13,3.94-4.31,6.1-6.75-.89-9.85-4.69-9.85-8.02,0-5.02,6.71-7.08,13.93-7.08,9.1,0,15.05,3.05,15.05,8.67,0,7.88-11.25,14.96-14.21,16.08ZM556.82,91.28c3.94,0,6.33-2.58,6.33-5.53,0-3.14-2.77-5.16-6.33-6.28-4.03,1.17-6.33,3.42-6.33,6.33s2.44,5.49,6.33,5.49Z"/>
</svg>