<?xml version="1.0" encoding="UTF-8"?>
<svg id="Layer_1" data-name="Layer 1" xmlns="http://www.w3.org/2000/svg" viewBox="0 0 413.25 298.08">
  <defs>
    <style>
      .cls-1 {
        fill: #febc32;
      }

      .cls-2 {
        fill: #c5c77c;
      }

      .cls-3 {
        fill: #2c180d;
      }
    </style>
  </defs>
  <path class="cls-2" d="M141.63,13.8C129.65-12.87,9.24.93,2.8,39.56c-1.24,7.45,1.79,16.25,7.85,33.87,5.81,16.88,8.93,25.55,17.36,30.78,8.86,5.5,22.72,6.67,26.45.51,7.5-12.39-33.29-42.27-26.11-60.94,6.03-15.66,44.71-20.58,74.34-13.91,14.32,3.22,28.02,9.48,35.4,2.16,4.27-4.23,6.05-12.64,3.54-18.22Z"/>
  <path class="cls-1" d="M130.67,259.13c-21.71,30.83-123.22-.63-130.26-39.58-4.34-24.01,26.37-55.51,43.53-49.99,17.51,5.63,17.66,48.79,30.99,50.26,13.24,1.46,18.8-40.49,32.12-39.99,15.31.57,39.21,57.16,23.62,79.3Z"/>
  <path class="cls-2" d="M347.73,169.82c-32.22,6.96-55.59,44.44-45,73,11.53,31.1,60.54,44.15,89,22,19.99-15.56,29.09-47.91,14-72-12.74-20.34-38.04-27.31-58-23Z"/>
  <path class="cls-1" d="M309.2,145.71c-7.85-2.02,1.73-61.75,19.47-113.3,6-17.43,9.45-23.81,14.97-24.75,17.18-2.95,39.82,49.19,49.28,76.39,12.82,36.87,16.56,71.44,11.54,72.99-7.04,2.17-25.61-62.46-48.37-60.66-5.91.47-11.6,6.85-22.99,19.61-18.09,20.27-20.6,30.57-23.9,29.73Z"/>
  <path class="cls-2" d="M66.67,81.72c-12.19,29.56,68.7,106.31,101.01,91.27,17.49-8.14,17.01-41.46,16.95-43.73-.8-31.45-25.71-49.47-30.56-52.8-18.35-12.61-37.26-12.6-43.57-12.32-4.01.18-37.27,1.66-43.83,17.58Z"/>
  <path class="cls-2" d="M244.73,197.82c-4.22-8.05-50.69-6.16-68,25-10.15,18.27-8.75,43.88,6,60,22.64,24.74,67.18,16.75,83-5,7.93-10.9,12.47-30.49,3-39-9.52-8.56-30.63-3.55-35,6-3.04,6.65,2.81,13.8,0,16-3.37,2.63-17.02-3.53-20-13-6.08-19.29,35.46-41.48,31-50Z"/>
  <path class="cls-2" d="M259.07,101.69c-4.22,8.05-50.69,6.16-68-25-10.15-18.27-8.75-43.88,6-60C219.7-8.05,264.25-.05,280.07,21.69c7.93,10.9,12.47,30.49,3,39-9.52,8.56-30.63,3.55-35-6-3.04-6.65,2.81-13.8,0-16-3.37-2.63-17.02,3.53-20,13-6.08,19.29,35.46,41.48,31,50Z"/>
  <g>
    <path class="cls-3" d="M123.87,142.08c0-6.66,2.82-18.6,25.68-18.6,6.6,0,15.9,1.62,15.9,9.78,0,4.74-3.18,7.8-6.78,8.34-1.68-3.42-4.5-4.98-9.12-4.98-4.86,0-7.62,1.62-7.62,6.18l16.74-1.2c1.08,1.68,1.44,4.32,1.26,6.06-.36,3.72-2.88,5.52-5.46,5.52h-10.38c-1.38,0-2.4,1.02-2.4,2.4v7.74c0,3.42-2.64,6.06-6.06,6.06h-12.36c.6-4.14.6-8.22.6-12.36v-14.94Z"/>
    <path class="cls-3" d="M164.55,150.78c0-10.08,7.08-18.3,22.8-18.3s22.8,8.22,22.8,18.3c0,10.8-7.08,19.5-22.8,19.5s-22.8-8.7-22.8-19.5ZM191.07,150.78c0-5.04-1.44-9.18-3.72-9.18s-3.72,4.14-3.72,9.18c0,5.76,1.44,10.38,3.72,10.38s3.72-4.62,3.72-10.38Z"/>
    <path class="cls-3" d="M223.65,132.48c5.4,0,10.8,2.46,12.6,10.14-1.5,4.5-1.68,8.22-1.56,16.08.06,4.02.12,6.18,1.02,8.94-2.94,1.8-6.18,2.64-9.48,2.64-7.44,0-11.52-4.26-11.28-10.32.42-10.2.36-8.76.42-16.38,0-3.36,0-5.4-1.32-7.8,2.4-2.28,6.12-3.3,9.6-3.3ZM261.57,167.64c-3.36,1.8-7.38,2.64-10.56,2.64-7.38,0-10.62-4.56-10.56-10.92,0-.78.12-9.06-.06-12.48-.12-2.34-.48-4.5-4.14-4.26,2.64-8.16,8.82-10.14,13.08-10.14,6.36,0,10.92,4.38,10.68,11.52-.3,8.64-.24,4.44,0,14.1.12,4.26.18,6.66,1.56,9.54Z"/>
    <path class="cls-3" d="M293.79,141.36h-6.78l-.06,12.24c0,3.6,2.82,4.8,5.88,2.64,1.14,1.74,1.62,3.36,1.62,4.8,0,6.72-7.26,9.24-13.38,9.24-7.26,0-13.08-4.56-13.02-11.94.06-6.12.18-11.04.12-16.98h-4.14c0-8.58,9.78-16.08,16.44-16.08,3.6,0,7.2,2.16,7.2,8.04v.06h8.7c1.14,2.94-.3,6.66-2.58,7.98Z"/>
  </g>
</svg>