<?xml version="1.0" encoding="UTF-8"?>
<svg id="Layer_1" data-name="Layer 1" xmlns="http://www.w3.org/2000/svg" viewBox="0 0 352.27 307.83">
  <defs>
    <style>
      .cls-1 {
        fill: #febc32;
      }

      .cls-2 {
        fill: #c5c77c;
      }

      .cls-3 {
        fill: #2c180d;
      }
    </style>
  </defs>
  <g>
    <path class="cls-3" d="M136.04,172.27c-2.88,1.44-6.06,2.7-10.62,2.7-4.14,0-10.14-.48-12.6-2.7.78-.72,1.2-2.28,1.2-4.74,0-5.28-1.86-11.22-4.98-11.22-1.32,0-3,1.08-3,4.38,0,4.5,2.94,9,6.78,11.58-1.2,1.26-4.92,2.7-10.92,2.7-10.92,0-13.98-4.74-13.92-10.92.24-16.68.24-17.22.12-22.5-.12-4.5-.24-6.78-1.56-10.32,4.2-2.04,8.46-3.06,13.56-3.06,6.3,0,10.02,1.26,12.42,3.48-4.56,3.6-6.36,8.22-6.36,10.74,0,1.98,1.14,3.66,2.88,3.66,2.76,0,4.8-4.2,4.8-8.82,0-2.1-.12-4.38-1.32-5.58,2.46-2.22,6.72-3.48,11.88-3.48s7.86.78,10.44,2.94c-1.44,6.36-3.42,12.84-8.22,20.16,4.56,4.74,7.74,15.18,9.42,21Z"/>
    <path class="cls-3" d="M137.24,155.47c0-10.08,7.08-18.3,22.8-18.3s22.8,8.22,22.8,18.3c0,10.8-7.08,19.5-22.8,19.5s-22.8-8.7-22.8-19.5ZM163.76,155.47c0-5.04-1.44-9.18-3.72-9.18s-3.72,4.14-3.72,9.18c0,5.76,1.44,10.38,3.72,10.38s3.72-4.62,3.72-10.38Z"/>
    <path class="cls-3" d="M229.94,161.41c0,4.5.24,5.88,1.08,9.54-3,3.24-5.7,4.02-9.78,4.02-9.12,0-9.36-4.26-11.76-8.7,3.24-6.42,4.38-19.32,0-19.32-1.98,0-3.6,2.7-3.6,6.9s1.5,8.52,3.6,12.42c-2.88,7.38-7.92,8.64-10.62,8.64-6.42,0-12.12-7.26-12.12-18.12,0-9.12,4.02-19.62,15.84-19.62,1.98,0,6.9.9,8.94,4.8-.78-5.34-.84-7.68-.84-10.62,0-3.66,2.16-6.18,8.4-6.18,4.32,0,8.4,1.08,11.94,4.02-.84,3.66-1.08,5.04-1.08,9.54v22.68Z"/>
    <path class="cls-3" d="M275.42,163.81c0,8.88-11.16,11.16-19.14,11.16-14.04,0-21-8.34-21-18.18,0-11.22,9.72-19.62,23.64-19.62,9.3,0,16.86,3.78,16.86,12.72,0,2.7-1.02,5.52-2.64,7.68-4.92,1.08-12.9,1.38-17.88-1.56,1.32,4.2,4.62,6.78,9,6.78,3.36,0,6.18-1.8,8.88-5.22,1.56,1.26,2.28,3.84,2.28,6.24ZM254.66,151.75c0,1.56.24,3,.6,4.26,3.06-1.8,4.56-4.86,4.56-7.86,0-1.56-.42-2.76-1.74-2.76-2.46,0-3.42,3.66-3.42,6.36Z"/>
  </g>
  <path class="cls-2" d="M134.01.63c-3.16-4.57-55.45,16.76-53,35,1.2,8.94,15.18,14.36,22,17,13.46,5.21,30.92,6.2,33,1,2.23-5.59-15.92-11.83-17-26-1.11-14.6,16.92-24.23,15-27Z"/>
  <path class="cls-2" d="M232.34,32.59c.65-5.14-39.21-20.54-75.8-12.01-3.1.72-20.82,4.86-20.04,8.46,1.74,8.02,94.87,11.24,95.84,3.55Z"/>
  <path class="cls-2" d="M109.18,306.14c8.35,3.64,62.53-74.89,55.54-80.18-3.45-2.61-22.23,12.35-33.5,25.16-9.18,10.44-13.62,19.74-14.72,22.12-5.42,11.7-11.2,31.21-7.32,32.89Z"/>
  <path class="cls-1" d="M89.01,72.63c-8.08-10-26.46-4.84-33-3-5.84,1.64-15.05,4.23-22,12-17.21,19.24.27,46.89-17,64C9.37,153.2-.39,154.06.01,158.63c.46,5.29,13.5,3.74,22,12,14.01,13.62-2.61,36.13,9,55,11.54,18.75,45.52,25.06,56,14,6.25-6.59,5.72-21-1-27-6.79-6.06-15.41.48-24-3-25.47-10.33-24.44-98.27,3-109,8.65-3.38,17.95,1.68,24-5,5.17-5.71,5.04-16.75,0-23Z"/>
  <path class="cls-2" d="M250.01,23.63c1.87,11.75,14.18,21.22,22,19,10.11-2.87,16.06-26.23,6-36-4.61-4.48-13.23-6.73-20-3-7.7,4.25-8.96,14-8,20Z"/>
  <path class="cls-1" d="M263.26,75.85c8.08-10,26.46-4.84,33-3,5.84,1.64,15.05,4.23,22,12,17.21,19.24-.27,46.89,17,64,7.64,7.58,17.4,8.43,17,13-.46,5.29-13.5,3.74-22,12-14.01,13.62,2.61,36.13-9,55-11.54,18.75-45.52,25.06-56,14-6.25-6.59-5.72-21,1-27,6.79-6.06,15.41.48,24-3,25.47-10.33,24.44-98.27-3-109-8.65-3.38-17.95,1.68-24-5-5.17-5.71-5.04-16.75,0-23Z"/>
  <path class="cls-2" d="M169.69,307.71c8.35,3.64,62.53-74.89,55.54-80.18-3.45-2.61-22.23,12.35-33.5,25.16-9.18,10.44-13.62,19.74-14.72,22.12-5.42,11.7-11.2,31.21-7.32,32.89Z"/>
</svg>