<?xml version="1.0" encoding="UTF-8"?>
<svg id="Layer_1" data-name="Layer 1" xmlns="http://www.w3.org/2000/svg" viewBox="0 0 387.07 274.73">
  <defs>
    <style>
      .cls-1 {
        fill: #febc32;
      }

      .cls-2 {
        fill: #c5c77c;
      }

      .cls-3 {
        fill: #163913;
      }

      .cls-4 {
        fill: #2c180d;
      }
    </style>
  </defs>
  <path class="cls-2" d="M197.76,9.9C184.48-16.35,14.89,13.42.97,54.49c-2.68,7.91.41,16.7,6.61,34.27,5.94,16.84,9.17,25.47,20.26,29.84,11.65,4.59,30.81,4.04,36.8-2.85,12.04-13.86-40.99-39.77-28.59-60.14,10.4-17.08,64.94-27.15,105.39-24,19.55,1.52,37.83,6.29,49.06-2.28,6.49-4.96,10.05-13.93,7.27-19.43Z"/>
  <path class="cls-1" d="M153.31,261.05c-24.62,33.16-137.77.72-145.2-40.79-4.58-25.58,30.11-59.56,49.23-53.86,19.52,5.82,19.2,51.89,34.08,53.3,14.78,1.41,21.47-43.43,36.36-43.05,17.11.44,43.2,60.58,25.52,84.39Z"/>
  <path class="cls-1" d="M235.74,83.26c-3.82-7.15,46.68-40.46,96.67-62.22,16.9-7.36,23.93-9.13,28.36-5.7,13.78,10.67-9.34,62.59-23,87.95-18.51,34.37-41.47,60.49-46,57.83-6.36-3.73,28.73-61.09,12.02-76.65-4.34-4.04-12.89-3.93-29.99-3.69-27.17.37-36.46,5.48-38.06,2.47Z"/>
  <g>
    <path class="cls-4" d="M30.62,149.64c-1.78.89-3.75,1.67-6.57,1.67-2.56,0-6.27-.3-7.79-1.67.48-.45.74-1.41.74-2.93,0-3.27-1.15-6.94-3.08-6.94-.82,0-1.86.67-1.86,2.71,0,2.78,1.82,5.57,4.19,7.16-.74.78-3.04,1.67-6.75,1.67-6.75,0-8.65-2.93-8.61-6.75.15-10.32.15-10.65.07-13.92-.07-2.78-.15-4.19-.96-6.38,2.6-1.26,5.23-1.89,8.39-1.89,3.9,0,6.2.78,7.68,2.15-2.82,2.23-3.93,5.08-3.93,6.64,0,1.22.71,2.26,1.78,2.26,1.71,0,2.97-2.6,2.97-5.46,0-1.3-.07-2.71-.82-3.45,1.52-1.37,4.16-2.15,7.35-2.15s4.86.48,6.46,1.82c-.89,3.93-2.12,7.94-5.08,12.47,2.82,2.93,4.79,9.39,5.83,12.99Z"/>
    <path class="cls-4" d="M31.36,139.25c0-6.23,4.38-11.32,14.1-11.32s14.1,5.08,14.1,11.32c0,6.68-4.38,12.06-14.1,12.06s-14.1-5.38-14.1-12.06ZM47.77,139.25c0-3.12-.89-5.68-2.3-5.68s-2.3,2.56-2.3,5.68c0,3.56.89,6.42,2.3,6.42s2.3-2.86,2.3-6.42Z"/>
    <path class="cls-4" d="M67.92,127.93c3.34,0,6.68,1.52,7.79,6.27-.93,2.78-1.04,5.08-.96,9.95.04,2.49.07,3.82.63,5.53-1.82,1.11-3.82,1.63-5.86,1.63-4.6,0-7.12-2.63-6.98-6.38.26-6.31.22-5.42.26-10.13,0-2.08,0-3.34-.82-4.82,1.48-1.41,3.79-2.04,5.94-2.04ZM90.04,149.68c-2.08,1.11-4.56,1.63-6.53,1.63-4.04,0-5.83-2.82-5.79-6.75,0-.48.15-5.6.19-7.72.04-1.56.07-2.82-2.19-2.63,1.48-5.05,4.97-6.27,7.35-6.27,3.56,0,6.12,2.38,5.97,6.27-.45,2.26-.56,4.94-.33,9.57.11,2.63.48,4.12,1.34,5.9ZM104.7,149.68c-2.08,1.11-4.56,1.63-6.53,1.63-4.56,0-6.53-2.82-6.53-6.75,0-.48.07-5.6-.04-7.72-.07-1.45-.3-2.78-2.56-2.63,1.63-5.05,5.46-6.27,8.09-6.27,3.93,0,6.75,2.71,6.61,7.12-.19,5.34-.19,2.75,0,8.72.07,2.63.11,4.12.96,5.9Z"/>
    <path class="cls-4" d="M112.87,127.93c3.34,0,6.68,1.52,7.79,6.27-.93,2.78-1.04,5.08-.96,9.95.04,2.49.07,3.82.63,5.53-1.82,1.11-3.82,1.63-5.86,1.63-4.6,0-7.12-2.63-6.98-6.38.26-6.31.22-5.42.26-10.13,0-2.08,0-3.34-.82-4.82,1.48-1.41,3.79-2.04,5.94-2.04ZM134.98,149.68c-2.08,1.11-4.56,1.63-6.53,1.63-4.04,0-5.83-2.82-5.79-6.75,0-.48.15-5.6.19-7.72.04-1.56.07-2.82-2.19-2.63,1.48-5.05,4.97-6.27,7.35-6.27,3.56,0,6.12,2.38,5.97,6.27-.45,2.26-.56,4.94-.33,9.57.11,2.63.48,4.12,1.34,5.9ZM149.64,149.68c-2.08,1.11-4.56,1.63-6.53,1.63-4.56,0-6.53-2.82-6.53-6.75,0-.48.07-5.6-.04-7.72-.07-1.45-.3-2.78-2.56-2.63,1.63-5.05,5.46-6.27,8.09-6.27,3.93,0,6.75,2.71,6.61,7.12-.19,5.34-.19,2.75,0,8.72.07,2.63.11,4.12.96,5.9Z"/>
    <path class="cls-4" d="M151.69,129.57c2.08-1.11,4.34-1.63,6.31-1.63,4.56,0,6.53,2.82,6.53,6.75,0,.48-.07,5.6.04,7.72.07,1.45.59,2.78,2.67,2.63-1.63,5.05-5.46,6.27-8.09,6.27-3.79,0-6.72-2.71-6.57-7.12.19-5.34.19-2.75,0-8.72-.07-2.63-.04-4.12-.89-5.9ZM175.03,151.31c-3.34,0-6.68-1.52-7.79-6.27.93-2.78,1.04-5.08.96-9.95-.04-2.49-.07-3.82-.63-5.53,1.82-1.11,3.82-1.63,5.86-1.63,4.6,0,7.12,2.63,6.98,6.38-.26,6.31-.22,5.42-.26,10.13,0,2.08,0,3.34.82,4.82-1.48,1.41-3.79,2.04-5.94,2.04Z"/>
    <path class="cls-4" d="M189.21,127.93c3.34,0,6.68,1.52,7.79,6.27-.93,2.78-1.04,5.08-.96,9.95.04,2.49.07,3.82.63,5.53-1.82,1.11-3.82,1.63-5.86,1.63-4.6,0-7.12-2.63-6.98-6.38.26-6.31.22-5.42.26-10.13,0-2.08,0-3.34-.82-4.82,1.48-1.41,3.79-2.04,5.94-2.04ZM212.67,149.68c-2.08,1.11-4.56,1.63-6.53,1.63-4.56,0-6.57-2.82-6.53-6.75,0-.48.07-5.6-.04-7.72-.07-1.45-.3-2.78-2.56-2.63,1.63-5.05,5.46-6.27,8.09-6.27,3.93,0,6.75,2.71,6.61,7.12-.19,5.34-.15,2.75,0,8.72.07,2.63.11,4.12.96,5.9Z"/>
    <path class="cls-4" d="M229.07,149.68c-2.08,1.11-4.56,1.63-6.53,1.63-4.56,0-6.68-2.82-6.64-6.75.04-3.56.22-5.64.15-8.35-.07-2.78-.15-4.19-.93-6.38,2.08-1.15,4.94-1.89,6.9-1.89,3.34,0,6.12,1.67,6.12,4.6,0,4.04-.26,8.46-.04,11.24.19,2.41.37,4.04.96,5.9ZM216.16,122.7c0-2.3,1.97-3.82,5.9-3.82s5.9,1.52,5.9,3.82c0,3.15-3.6,4.12-5.94,4.12-2.52,0-5.86-1.11-5.86-4.12Z"/>
    <path class="cls-4" d="M260.73,150.76c-3.86.59-7.72.59-11.58,0l-4.9-9.05.11,2.08c.11,1.93.22,3.86.96,5.9-2.08,1.11-4.56,1.63-6.53,1.63-4.56,0-6.57-2.82-6.53-6.75.07-5.9.11-11.32-.04-15.77-.11-3.9-.26-5.05-.93-7.01,2.12-.85,5.08-1.26,6.72-1.26,4.49,0,6.53,3.04,6.35,7.12-.07,1.6-.07,1.56-.15,4.38,1.82-2.3,5.16-4.08,8.16-4.08,3.82,0,5.08,2.86,5.08,5.38,0,2.38-1.15,4.42-3.27,5.42-.96-1.71-3.45-3.08-5.97-3.08-1.6,0-2.45.56-2.45,1.52,0,1.19,1.34,2.67,4.01,2.67,1.37,0,3.15-.41,4.42-1.11l6.53,12.02Z"/>
    <path class="cls-4" d="M268.12,140.96c2.6,0,5.23-.96,7.12-3.15-.26,6.05-2.3,13.51-8.57,13.51-2.97,0-5.75-1.56-5.75-5.46,0-2.34,1-4.45,3.41-6.31,1.04,1.11,2.04,1.41,3.79,1.41ZM287.9,149.68c-2.04,1.22-4.79,1.63-6.42,1.63-4.53,0-6.23-2.63-6.23-6.38v-7.12c-1.19-.37-2.23-.59-3.75-.59-2.63,0-5.31.82-7.16,2.34-1.71-1.93-1.89-4.42-1.56-6.05.78-4.45,5.79-5.57,10.39-5.57,11.21,0,13.92,4.71,13.77,11.43-.04,1.48-.04,2.93,0,4.42.04,1.97.22,3.93.96,5.9Z"/>
    <path class="cls-4" d="M307.46,133.43h-4.19l-.04,7.57c0,2.23,1.74,2.97,3.64,1.63.71,1.08,1,2.08,1,2.97,0,4.16-4.49,5.71-8.28,5.71-4.49,0-8.09-2.82-8.05-7.38.04-3.79.11-6.83.07-10.5h-2.56c0-5.31,6.05-9.95,10.17-9.95,2.23,0,4.45,1.34,4.45,4.97v.04h5.38c.71,1.82-.19,4.12-1.6,4.94Z"/>
    <path class="cls-4" d="M324.83,149.68c-2.08,1.11-4.56,1.63-6.53,1.63-4.56,0-6.68-2.82-6.64-6.75.04-3.56.22-5.64.15-8.35-.07-2.78-.15-4.19-.93-6.38,2.08-1.15,4.94-1.89,6.9-1.89,3.34,0,6.12,1.67,6.12,4.6,0,4.04-.26,8.46-.04,11.24.19,2.41.37,4.04.96,5.9ZM311.92,122.7c0-2.3,1.97-3.82,5.9-3.82s5.9,1.52,5.9,3.82c0,3.15-3.6,4.12-5.94,4.12-2.52,0-5.86-1.11-5.86-4.12Z"/>
    <path class="cls-4" d="M327.06,139.25c0-6.23,4.38-11.32,14.1-11.32s14.1,5.08,14.1,11.32c0,6.68-4.38,12.06-14.1,12.06s-14.1-5.38-14.1-12.06ZM343.46,139.25c0-3.12-.89-5.68-2.3-5.68s-2.3,2.56-2.3,5.68c0,3.56.89,6.42,2.3,6.42s2.3-2.86,2.3-6.42Z"/>
    <path class="cls-4" d="M363.62,127.93c3.34,0,6.68,1.52,7.79,6.27-.93,2.78-1.04,5.08-.96,9.95.04,2.49.07,3.82.63,5.53-1.82,1.11-3.82,1.63-5.86,1.63-4.6,0-7.12-2.63-6.98-6.38.26-6.31.22-5.42.26-10.13,0-2.08,0-3.34-.82-4.82,1.48-1.41,3.79-2.04,5.94-2.04ZM387.07,149.68c-2.08,1.11-4.56,1.63-6.53,1.63-4.56,0-6.57-2.82-6.53-6.75,0-.48.07-5.6-.04-7.72-.07-1.45-.3-2.78-2.56-2.63,1.63-5.05,5.46-6.27,8.09-6.27,3.93,0,6.75,2.71,6.61,7.12-.19,5.34-.15,2.75,0,8.72.07,2.63.11,4.12.96,5.9Z"/>
  </g>
  <path class="cls-1" d="M345.42,164.9c9.62,3.47,16.73,20.72,19.26,26.86,2.26,5.49,5.82,14.13,5.44,22.6-.96,20.98-24.94,15.5-24.75,35.83.09,9,4.86,17.52,2.23,18.72-3.04,1.38-9.21-10.15-18.13-14.55-14.71-7.26-17.71,14.33-33.91,10.85-16.1-3.45-37.63-30.03-37.4-42.59.14-7.49,8.05-11.87,14.82-8.21,6.84,3.7,8,13.18,14.44,19.26,19.1,18.04,65.07-12.32,56.05-39.1-2.84-8.44-10.5-14.59-10.21-21.94.25-6.28,6.16-9.88,12.17-7.72Z"/>
  <path class="cls-3" d="M171.57,216.98c.59,19.35,30.61,34.69,50.04,28.42,7.18-2.32,15.23-8.34,14.36-12.89-1.61-8.38-32.81-8.28-32.72-10.62.1-2.64,39.92,1.46,42.41-7.52,1.76-6.34-14.75-20.29-29.06-18.16-4.38.65-7.95,2.73-10.25,4.07-10.82,6.29-14.8,15.53-15.95,14.94-1.93-.99,12.04-25.7,8.39-28.44-3.55-2.67-27.77,12.52-27.24,30.21Z"/>
  <path class="cls-3" d="M207.78,113.2c25.99-20.61,16.34-77.55-12.16-97.83-10.54-7.5-27.04-12.4-32.4-6.54-9.87,10.79,22.19,53.55,18.89,55.81-3.74,2.57-38.84-56.33-53.74-50.57-10.51,4.07-12.78,41.03,4.79,58.5,5.38,5.35,11.87,8.13,16.07,9.92,19.71,8.42,36.47,4.44,36.84,6.62.61,3.67-47.62,9.75-47.66,17.57-.03,7.61,45.62,25.35,69.37,6.51Z"/>
</svg>