<?xml version="1.0" encoding="UTF-8"?>
<svg id="Layer_1" data-name="Layer 1" xmlns="http://www.w3.org/2000/svg" viewBox="0 0 405.03 296.69">
  <defs>
    <style>
      .cls-1 {
        fill: #febc32;
      }

      .cls-2 {
        fill: #c5c77c;
      }

      .cls-3 {
        fill: #163913;
      }

      .cls-4 {
        fill: #2c180d;
      }

      .cls-5 {
        fill: #e3e7c8;
      }
    </style>
  </defs>
  <path class="cls-3" d="M16.48,9.13C-12.73,30.71-.46,88.75,32.51,108.92c12.19,7.46,31.13,12.15,37.12,6.05,11.03-11.23-26.5-54.32-22.78-56.7,4.21-2.7,45.56,56.84,62.43,50.65,11.9-4.37,13.68-42.21-6.75-59.73-6.26-5.37-13.73-8.08-18.56-9.83-22.68-8.22-41.72-3.82-42.18-6.05-.78-3.74,54.12-10.91,53.99-18.9-.13-7.78-52.61-25.02-79.3-5.29Z"/>
  <path class="cls-2" d="M42.8,272.03c.91,5.48,57.3,8.51,62.87-9.04,2.73-8.6-7.6-19.46-12.64-24.76-9.95-10.46-25.32-18.81-29.42-14.98-4.4,4.11,9.35,17.49,4.28,30.77-5.22,13.67-25.64,14.69-25.09,18.02Z"/>
  <path class="cls-5" d="M64.6,264.59c.47,2.82,29.49,4.38,32.36-4.65,1.41-4.43-3.91-10.02-6.51-12.75-5.12-5.38-13.03-9.68-15.14-7.71-2.27,2.11,4.81,9,2.2,15.84-2.69,7.04-13.2,7.56-12.91,9.28Z"/>
  <path class="cls-2" d="M5.44,296.57c8.35,3.64,62.53-74.89,55.54-80.18-3.45-2.61-22.23,12.35-33.5,25.16-9.18,10.44-13.62,19.74-14.72,22.12-5.42,11.7-11.2,31.21-7.32,32.89Z"/>
  <path class="cls-5" d="M15.96,279.59c5.15,2.24,38.56-46.19,34.25-49.45-2.13-1.61-13.71,7.62-20.66,15.52-5.66,6.44-8.4,12.17-9.08,13.64-3.34,7.22-6.91,19.25-4.51,20.29Z"/>
  <path class="cls-2" d="M373.5,143.46c12.25.88,54.62-79.45,14.92-120.28-25.14-25.85-75.44-27.89-97.09-4.32-17.64,19.21-14.84,53.87-8.03,56.15,6,2,14.74-21.29,24.67-19.43,12.7,2.38,12.34,43.12,20.76,43.65,7.46.46,11.74-31.3,19.46-31.34,11.86-.06,13.72,74.74,25.31,75.57Z"/>
  <path class="cls-3" d="M344.88,277.86c22.47-2.69,37.2-39.22,27.89-61.18-3.44-8.12-11.28-16.87-16.49-15.38-9.59,2.74-6.24,39.04-8.97,39.18-3.09.16-2.44-46.61-13.15-48.58-7.56-1.39-22.09,19.27-18.12,35.7,1.21,5.03,3.99,8.96,5.79,11.51,8.44,11.94,19.61,15.61,19.04,17.01-.96,2.35-31.15-11.35-33.97-6.82-2.74,4.41,17.45,31.03,37.98,28.57Z"/>
  <path class="cls-1" d="M283.85,168.2c-13.57,44.65-145.05,47.02-168.41,3.97-14.4-26.53,9.48-75.45,31.78-75.62,22.76-.17,39.67,50.49,55.9,47.05,16.12-3.42,6.4-54.86,22.25-59.44,18.22-5.26,68.23,51.98,58.49,84.03Z"/>
  <g>
    <path class="cls-4" d="M54.92,130.9c16.07,0,18.15,8.13,18.15,12.34,0,5.62-3.85,10.45-10.06,10.45-2.04,0-3.26-.83-5.03-3.3,1.65-2.32,2.16-5.62,2.16-8.25,0-2.2-.43-4.95-2.12-4.95s-2.08,2.59-2.08,5.42c0,4.12.98,6.17,2.04,7.78-.43,2.2-.27,6.99.59,9.55-2.44,1.22-5.74,1.61-7.78,1.61-2.75,0-5.03-.71-7.07-1.96.43-1.45.94-3.89,1.06-7.7.12-3.93.04-11.87-.04-13.91-.08-2.36-.55-4.4-.9-5.5,2.75-1.02,7.07-1.57,11.08-1.57Z"/>
    <path class="cls-4" d="M101.13,154.24c0,5.82-7.31,7.31-12.53,7.31-9.19,0-13.75-5.46-13.75-11.91,0-7.35,6.37-12.85,15.48-12.85,6.09,0,11.04,2.48,11.04,8.33,0,1.77-.67,3.61-1.73,5.03-3.22.71-8.45.9-11.71-1.02.86,2.75,3.03,4.44,5.89,4.44,2.2,0,4.05-1.18,5.82-3.42,1.02.82,1.49,2.51,1.49,4.09ZM87.53,146.34c0,1.02.16,1.96.39,2.79,2-1.18,2.99-3.18,2.99-5.15,0-1.02-.28-1.81-1.14-1.81-1.61,0-2.24,2.4-2.24,4.17Z"/>
    <path class="cls-4" d="M111.03,136.8c1.89,0,4.91.9,6.84,4.52.12.51.12,3.1.12,4.36-.04,3.06-.04,4.95,0,8.29.04,1.96,0,3.89.67,5.85-1.93,1.18-4.17,1.73-5.89,1.73-5.3,0-7.86-2.79-7.7-6.76.16-3.58.28-6.6.28-10.73,0-1.73.08-3.42-.86-5.11,1.65-1.61,3.97-2.16,6.56-2.16ZM122.74,136.8c2.67,0,4.6,1.45,4.6,4.64,0,2.71-1.93,4.56-3.97,4.56-2.4,0-3.93-1.61-5.5-4.68.67-2.75,3.06-4.52,4.87-4.52Z"/>
    <path class="cls-4" d="M148.59,137.39c-.59-2.16-1.81-3.26-3.61-3.26-1.61,0-2.79.75-2.79,2,0,.35.04.79.28,1.26h6.13c.75,1.93-.2,4.36-1.69,5.23h-2.79v12.18c0,4.01-1.85,6.76-6.48,6.76-1.85,0-4.75-.43-6.92-1.73.79-2.08.9-4.12,1.02-6.25.12-2.12.2-5.74.08-10.96h-2.83c-.75-1.73-.55-3.5.39-5.23h1.96c-.86-5.7,2.4-10.02,11.28-10.02,4.91,0,8.49,1.69,8.49,5.54,0,.71-.12,3.38-2.51,4.48Z"/>
    <path class="cls-4" d="M149.06,148.78c0-6.6,4.64-11.98,14.93-11.98s14.93,5.38,14.93,11.98c0,7.07-4.64,12.77-14.93,12.77s-14.93-5.7-14.93-12.77ZM166.43,148.78c0-3.3-.94-6.01-2.44-6.01s-2.44,2.71-2.44,6.01c0,3.77.94,6.8,2.44,6.8s2.44-3.03,2.44-6.8Z"/>
    <path class="cls-4" d="M188.04,136.8c1.89,0,4.91.9,6.84,4.52.12.51.12,3.1.12,4.36-.04,3.06-.04,4.95,0,8.29.04,1.96,0,3.89.67,5.85-1.93,1.18-4.17,1.73-5.89,1.73-5.3,0-7.86-2.79-7.7-6.76.16-3.58.28-6.6.28-10.73,0-1.73.08-3.42-.86-5.11,1.65-1.61,3.97-2.16,6.56-2.16ZM199.75,136.8c2.67,0,4.6,1.45,4.6,4.64,0,2.71-1.93,4.56-3.97,4.56-2.4,0-3.93-1.61-5.5-4.68.67-2.75,3.06-4.52,4.87-4.52Z"/>
    <path class="cls-4" d="M212.6,136.8c3.54,0,7.07,1.61,8.25,6.64-.98,2.95-1.1,5.38-1.02,10.53.04,2.63.08,4.05.67,5.85-1.93,1.18-4.05,1.73-6.21,1.73-4.87,0-7.54-2.79-7.39-6.76.27-6.68.24-5.74.27-10.73,0-2.2,0-3.54-.86-5.11,1.57-1.49,4.01-2.16,6.29-2.16ZM236.02,159.82c-2.2,1.18-4.83,1.73-6.92,1.73-4.28,0-6.17-2.99-6.13-7.15,0-.51.16-5.93.2-8.17.04-1.65.08-2.99-2.32-2.79,1.57-5.34,5.26-6.64,7.78-6.64,3.77,0,6.48,2.51,6.33,6.64-.47,2.4-.59,5.23-.35,10.14.12,2.79.51,4.36,1.41,6.25ZM251.54,159.82c-2.2,1.18-4.83,1.73-6.92,1.73-4.83,0-6.92-2.99-6.92-7.15,0-.51.08-5.93-.04-8.17-.08-1.53-.31-2.95-2.71-2.79,1.73-5.34,5.78-6.64,8.57-6.64,4.17,0,7.15,2.87,6.99,7.54-.2,5.66-.2,2.91,0,9.23.08,2.79.12,4.36,1.02,6.25Z"/>
    <path class="cls-4" d="M261.24,150.59c2.75,0,5.54-1.02,7.54-3.34-.27,6.4-2.44,14.3-9.08,14.3-3.14,0-6.09-1.65-6.09-5.78,0-2.48,1.06-4.71,3.61-6.68,1.1,1.18,2.16,1.49,4.01,1.49ZM282.18,159.82c-2.16,1.3-5.07,1.73-6.8,1.73-4.79,0-6.6-2.79-6.6-6.76v-7.54c-1.26-.39-2.36-.63-3.97-.63-2.79,0-5.62.87-7.58,2.48-1.81-2.04-2-4.68-1.65-6.4.83-4.71,6.13-5.89,11-5.89,11.87,0,14.73,4.99,14.58,12.1-.04,1.57-.04,3.1,0,4.68.04,2.08.24,4.17,1.02,6.25Z"/>
    <path class="cls-4" d="M290.63,136.8c3.54,0,7.07,1.61,8.25,6.64-.98,2.95-1.1,5.38-1.02,10.53.04,2.63.08,4.05.67,5.85-1.93,1.18-4.05,1.73-6.21,1.73-4.87,0-7.54-2.79-7.39-6.76.27-6.68.24-5.74.27-10.73,0-2.2,0-3.54-.86-5.11,1.57-1.49,4.01-2.16,6.29-2.16ZM315.47,159.82c-2.2,1.18-4.83,1.73-6.92,1.73-4.83,0-6.96-2.99-6.92-7.15,0-.51.08-5.93-.04-8.17-.08-1.53-.31-2.95-2.71-2.79,1.73-5.34,5.78-6.64,8.57-6.64,4.17,0,7.15,2.87,6.99,7.54-.2,5.66-.16,2.91,0,9.23.08,2.79.12,4.36,1.02,6.25Z"/>
    <path class="cls-4" d="M342.42,154.56c0,4.95-6.01,6.99-11.67,6.99-8.57,0-13.2-5.46-13.2-12.18,0-7.07,6.56-12.57,14.54-12.57,6.13,0,10.73,2.32,10.73,7.03,0,1.49-.79,3.03-2.95,5.07-1.22-1.65-2.95-3.3-5.19-3.3-2.83,0-4.64,1.65-4.64,3.58,0,1.81,1.61,3.22,3.61,3.22,1.89,0,4.48-1.61,6.21-3.5,2.12,1.85,2.55,3.85,2.55,5.66Z"/>
    <path class="cls-4" d="M371.38,154.24c0,5.82-7.31,7.31-12.53,7.31-9.19,0-13.75-5.46-13.75-11.91,0-7.35,6.37-12.85,15.48-12.85,6.09,0,11.04,2.48,11.04,8.33,0,1.77-.67,3.61-1.73,5.03-3.22.71-8.45.9-11.71-1.02.86,2.75,3.03,4.44,5.89,4.44,2.2,0,4.05-1.18,5.82-3.42,1.02.82,1.49,2.51,1.49,4.09ZM357.79,146.34c0,1.02.16,1.96.39,2.79,2-1.18,2.99-3.18,2.99-5.15,0-1.02-.28-1.81-1.14-1.81-1.61,0-2.24,2.4-2.24,4.17Z"/>
  </g>
</svg>