<?xml version="1.0" encoding="UTF-8"?>
<svg id="Layer_1" data-name="Layer 1" xmlns="http://www.w3.org/2000/svg" viewBox="0 0 389.22 308.24">
  <defs>
    <style>
      .cls-1 {
        fill: #febc32;
      }

      .cls-2 {
        fill: #c5c77c;
      }

      .cls-3 {
        fill: #163913;
      }

      .cls-4 {
        fill: #2c180d;
      }
    </style>
  </defs>
  <path class="cls-1" d="M253.98,64.95c1.11-12.22,18.51-27.8,24.7-33.35,5.53-4.95,14.25-12.76,23.93-16.1,23.97-8.28,24.78,20.78,47.66,11.51,10.13-4.1,18.36-13.2,20.48-10.81,2.45,2.76-8.77,14.74-11.14,26.61-3.91,19.56,21.34,13.28,22.14,32.81.8,19.4-22.92,55.15-37.17,60.49-8.49,3.18-15.75-3.64-13.59-12.79,2.18-9.24,12.54-14.75,17.53-24.61,14.8-29.24-32.89-66.73-60.49-44.79-8.7,6.91-13.41,18.16-21.79,21.11-7.16,2.52-12.95-2.44-12.26-10.07Z"/>
  <path class="cls-3" d="M157.48,263.04c.59,19.35,30.61,34.69,50.04,28.42,7.18-2.32,15.23-8.34,14.36-12.89-1.61-8.38-32.81-8.28-32.72-10.62.1-2.64,39.92,1.46,42.41-7.52,1.76-6.34-14.75-20.29-29.06-18.16-4.38.65-7.95,2.73-10.25,4.07-10.82,6.29-14.8,15.53-15.95,14.94-1.93-.99,12.04-25.7,8.39-28.44-3.55-2.67-27.77,12.52-27.24,30.21Z"/>
  <path class="cls-2" d="M15.52,223.19c-14.17,8.33-35.06,84.02,23.63,78.39,37.16-3.57,94.78-38.65,111.34-67.5,13.49-23.51-1.36-40.98-9.83-37.36-7.47,3.2-9.51,22.59-21.37,28.69-15.18,7.81-28.5-15.36-38.2-9.59-8.6,5.11-2.74,26.06-11.47,31.64-13.4,8.57-40.7-32.15-54.11-24.27Z"/>
  <g>
    <path class="cls-4" d="M79.23,126.17c.14-5.3.09-11.72-.05-16.6-.09-2.81-.66-5.25-1.08-6.56,2.77-1.59,5.86-2.11,8.49-2.11,3.52,0,7.55,1.27,10.08,3.24-2.2,1.83-3.52,4.22-3.52,7.13,0,2.72,1.36,4.55,3.42,4.55,2.2,0,3.66-1.78,3.66-4.5s-1.36-5.25-3.56-7.17c2.63-2.06,6.89-3.24,10.55-3.24,4.6,0,7.31,1.5,8.35,2.11-.42,1.36-1.03,3.7-1.12,6.66-.19,4.88-.19,11.3-.05,16.6.09,3.99.75,7.36,1.27,9.1-.98.94-3.75,2.11-8.35,2.11-3.66,0-7.92-1.17-10.55-3.24,2.2-2.16,3.56-4.92,3.56-8.11,0-2.72-1.45-4.5-3.66-4.5-2.06,0-3.42,1.83-3.42,4.55,0,3.28,1.31,6,3.52,8.06-2.53,1.97-6.56,3.24-10.08,3.24-2.72,0-5.86-.7-8.72-2.11.52-1.74,1.17-5.21,1.27-9.19Z"/>
    <path class="cls-4" d="M117.78,114.78c0-5.25,3.84-6.85,8.96-6.85,3.52,0,6,.89,8.58,3.47-1.36,1.78-2.63,5.25-2.63,9.28,0,3.38.89,5.21,2.53,5.21,1.55,0,2.72-1.64,2.72-5.35,0-3.99-1.36-7.5-2.63-9.14,2.58-2.58,5.06-3.47,8.58-3.47,5.11,0,8.96,1.59,8.96,6.85,0,6.42-5.67,15.71-11.77,21.99-4.27.98-6.75.94-11.54,0-6.1-6.28-11.77-15.57-11.77-21.99Z"/>
    <path class="cls-4" d="M154.73,122.24c0-7.88,5.53-14.3,17.82-14.3s17.82,6.42,17.82,14.3c0,8.44-5.53,15.24-17.82,15.24s-17.82-6.8-17.82-15.24ZM175.46,122.24c0-3.94-1.13-7.17-2.91-7.17s-2.91,3.24-2.91,7.17c0,4.5,1.13,8.11,2.91,8.11s2.91-3.61,2.91-8.11Z"/>
    <path class="cls-4" d="M201.25,107.93c2.25,0,5.86,1.08,8.16,5.39.14.61.14,3.7.14,5.21-.05,3.66-.05,5.91,0,9.89.05,2.34,0,4.64.8,6.99-2.3,1.41-4.97,2.06-7.03,2.06-6.33,0-9.38-3.33-9.19-8.06.19-4.27.33-7.88.33-12.8,0-2.06.09-4.08-1.03-6.1,1.97-1.92,4.74-2.58,7.83-2.58ZM215.22,107.93c3.19,0,5.49,1.73,5.49,5.53,0,3.24-2.3,5.44-4.74,5.44-2.86,0-4.69-1.92-6.56-5.58.8-3.28,3.66-5.39,5.81-5.39Z"/>
    <path class="cls-4" d="M246.08,108.64c-.7-2.58-2.16-3.89-4.31-3.89-1.92,0-3.33.89-3.33,2.39,0,.42.05.94.33,1.5h7.31c.89,2.3-.23,5.21-2.02,6.24h-3.33v14.54c0,4.78-2.2,8.06-7.74,8.06-2.2,0-5.67-.52-8.25-2.06.94-2.49,1.08-4.92,1.22-7.46s.23-6.85.09-13.08h-3.38c-.89-2.06-.66-4.17.47-6.24h2.34c-1.03-6.8,2.86-11.96,13.46-11.96,5.86,0,10.13,2.02,10.13,6.61,0,.84-.14,4.03-3,5.35Z"/>
    <path class="cls-4" d="M246.64,122.24c0-7.88,5.53-14.3,17.82-14.3s17.82,6.42,17.82,14.3c0,8.44-5.53,15.24-17.82,15.24s-17.82-6.8-17.82-15.24ZM267.37,122.24c0-3.94-1.13-7.17-2.91-7.17s-2.91,3.24-2.91,7.17c0,4.5,1.12,8.11,2.91,8.11s2.91-3.61,2.91-8.11Z"/>
    <path class="cls-4" d="M293.16,107.93c2.25,0,5.86,1.08,8.16,5.39.14.61.14,3.7.14,5.21-.05,3.66-.05,5.91,0,9.89.05,2.34,0,4.64.8,6.99-2.3,1.41-4.97,2.06-7.03,2.06-6.33,0-9.38-3.33-9.19-8.06.19-4.27.33-7.88.33-12.8,0-2.06.09-4.08-1.03-6.1,1.97-1.92,4.74-2.58,7.83-2.58ZM307.13,107.93c3.19,0,5.49,1.73,5.49,5.53,0,3.24-2.3,5.44-4.74,5.44-2.86,0-4.69-1.92-6.56-5.58.8-3.28,3.66-5.39,5.81-5.39Z"/>
    <path class="cls-4" d="M35.17,179.57c0,6.94-6.8,12.61-20.4,12.61-5.86,0-13.65-.98-13.65-7.08,0-2.91,1.92-5.58,4.97-6.94,2.39,2.86,4.64,4.03,8.16,4.03,1.64,0,4.55-.42,4.55-2.39,0-2.67-3.89-2.91-5.58-2.95-2.11-.05-4.13.09-7.13,1.31-1.97-2.49-3.99-5.72-3.99-9.05,0-7.83,8.49-13.5,20.02-13.5,7.31,0,12.66,2.11,12.66,7.13,0,2.16-1.17,4.97-4.83,6.19-1.97-2.95-5.25-4.13-8.11-4.13-2.53,0-4.27,1.08-4.27,2.49,0,1.22,1.97,2.67,6.85,2.67,2.16,0,4.31-.52,5.53-1.03,3.28,4.41,5.21,7.32,5.21,10.64Z"/>
    <path class="cls-4" d="M37.89,164.71c2.63-1.41,5.49-2.06,7.97-2.06,5.77,0,8.25,3.56,8.25,8.53,0,.61-.09,7.08.05,9.75.09,1.83.75,3.52,3.38,3.33-2.06,6.38-6.89,7.92-10.22,7.92-4.78,0-8.49-3.42-8.3-9,.23-6.75.23-3.47,0-11.02-.09-3.33-.05-5.21-1.13-7.46ZM67.39,192.18c-4.22,0-8.44-1.92-9.85-7.92,1.17-3.52,1.31-6.42,1.22-12.57-.05-3.14-.09-4.83-.8-6.99,2.3-1.41,4.83-2.06,7.41-2.06,5.81,0,9,3.33,8.82,8.07-.33,7.97-.28,6.85-.33,12.8,0,2.63,0,4.22,1.03,6.1-1.88,1.78-4.78,2.58-7.5,2.58Z"/>
    <path class="cls-4" d="M108.47,181.87c0,5.67-6.14,10.32-18.05,10.32-4.92,0-12.71-.89-12.71-5.77,0-2.16,1.55-4.17,4.03-5.2,1.97,1.88,4.5,2.53,7.36,2.53,2.39,0,3.47-.33,3.47-1.78s-1.08-1.92-3.28-1.92-5.77.47-7.55,1.17c-1.64-1.69-3.05-4.83-3.05-7.74,0-6.38,7.03-10.83,17.44-10.83,5.16,0,11.96,1.22,11.96,5.67,0,1.69-.94,3.75-3.89,4.69-1.69-1.92-4.31-2.58-6.75-2.58s-3.28.66-3.28,1.64.8,1.73,3.89,1.73c2.02,0,4.92-.33,6.14-.8,3.05,3,4.27,6.24,4.27,8.86Z"/>
    <path class="cls-4" d="M134.02,169.58h-5.3l-.05,9.57c0,2.81,2.2,3.75,4.6,2.06.89,1.36,1.27,2.62,1.27,3.75,0,5.25-5.67,7.22-10.46,7.22-5.67,0-10.22-3.56-10.18-9.33.05-4.78.14-8.63.09-13.27h-3.24c0-6.71,7.64-12.57,12.85-12.57,2.81,0,5.63,1.69,5.63,6.28v.05h6.8c.89,2.3-.23,5.2-2.02,6.24Z"/>
    <path class="cls-4" d="M146.26,179.1c3.28,0,6.61-1.22,9-3.99-.33,7.64-2.91,17.07-10.83,17.07-3.75,0-7.27-1.97-7.27-6.89,0-2.95,1.27-5.63,4.31-7.97,1.31,1.41,2.58,1.78,4.78,1.78ZM171.26,190.12c-2.58,1.55-6.05,2.06-8.11,2.06-5.72,0-7.88-3.33-7.88-8.06v-9c-1.5-.47-2.81-.75-4.74-.75-3.33,0-6.71,1.03-9.05,2.95-2.16-2.44-2.39-5.58-1.97-7.64.98-5.63,7.31-7.03,13.13-7.03,14.16,0,17.58,5.96,17.4,14.44-.05,1.88-.05,3.7,0,5.58.05,2.49.28,4.97,1.22,7.46Z"/>
    <path class="cls-4" d="M191.38,190.12c-2.63,1.41-5.77,2.06-8.25,2.06-5.77,0-8.44-3.56-8.39-8.53.05-4.5.28-7.13.19-10.55-.09-3.52-.19-5.3-1.17-8.07,2.63-1.45,6.24-2.39,8.72-2.39,4.22,0,7.74,2.11,7.74,5.81,0,5.11-.33,10.69-.05,14.21.23,3.05.47,5.11,1.22,7.46ZM175.06,156.03c0-2.91,2.49-4.83,7.46-4.83s7.46,1.92,7.46,4.83c0,3.99-4.55,5.21-7.5,5.21-3.19,0-7.41-1.41-7.41-5.21Z"/>
    <path class="cls-4" d="M202.02,162.64c4.22,0,8.44,1.92,9.85,7.92-1.17,3.52-1.31,6.42-1.22,12.57.05,3.14.09,4.83.8,6.99-2.3,1.41-4.83,2.06-7.41,2.06-5.81,0-9-3.33-8.81-8.06.33-7.97.28-6.85.33-12.8,0-2.63,0-4.22-1.03-6.1,1.88-1.78,4.78-2.58,7.5-2.58ZM231.66,190.12c-2.63,1.41-5.77,2.06-8.25,2.06-5.77,0-8.3-3.56-8.25-8.53,0-.61.09-7.08-.05-9.75-.09-1.83-.38-3.52-3.24-3.33,2.06-6.38,6.89-7.92,10.22-7.92,4.97,0,8.53,3.42,8.35,9-.23,6.75-.19,3.47,0,11.02.09,3.33.14,5.21,1.22,7.46Z"/>
    <path class="cls-4" d="M243.24,179.1c3.28,0,6.61-1.22,9-3.99-.33,7.64-2.91,17.07-10.83,17.07-3.75,0-7.27-1.97-7.27-6.89,0-2.95,1.27-5.63,4.31-7.97,1.31,1.41,2.58,1.78,4.78,1.78ZM268.23,190.12c-2.58,1.55-6.05,2.06-8.11,2.06-5.72,0-7.88-3.33-7.88-8.06v-9c-1.5-.47-2.81-.75-4.74-.75-3.33,0-6.71,1.03-9.05,2.95-2.16-2.44-2.39-5.58-1.97-7.64.99-5.63,7.32-7.03,13.13-7.03,14.16,0,17.58,5.96,17.4,14.44-.05,1.88-.05,3.7,0,5.58.05,2.49.28,4.97,1.22,7.46Z"/>
    <path class="cls-4" d="M304.86,174.84c0,12.43-9.52,17.35-20.77,17.35-4.55,0-11.16-.8-12.19-1.59.33-3.52.42-5.81.47-10.5.09-1.64.05-14.11-.05-16.22-.09-3.52-.33-4.6-1.08-7.46,3.05-2.34,7.08-3.14,10.13-3.14,4.5,0,6.05,1.83,6.1,4.83.05,4.36.09,7.03.42,11.35-1.78,2.91-2.81,6.75-2.81,10.32,0,1.69.23,3.33.75,4.78.33.09.66.14.94.14,2.2,0,3.33-2.49,3.33-5.3,0-3.19-.94-6.05-2.2-9.94,3.52-5.06,6.47-6.75,9.47-6.75,5.06,0,7.5,4.64,7.5,12.14Z"/>
    <path class="cls-4" d="M325.59,190.12c-2.63,1.41-5.77,2.06-8.25,2.06-5.77,0-8.44-3.56-8.39-8.53.05-8.49.19-13.46.09-19.93-.09-3.52-.19-5.3-1.22-8.07,2.63-1.45,6.24-2.39,8.72-2.39,4.22,0,7.74,2.11,7.74,5.81,0,5.11-.14,17.77.09,23.59.19,3.05.38,5.11,1.22,7.46Z"/>
    <path class="cls-4" d="M360.01,183.46c0,6.94-8.72,8.72-14.96,8.72-10.97,0-16.41-6.52-16.41-14.21,0-8.77,7.6-15.33,18.47-15.33,7.27,0,13.18,2.95,13.18,9.94,0,2.11-.8,4.31-2.06,6-3.84.84-10.08,1.08-13.97-1.22,1.03,3.28,3.61,5.3,7.03,5.3,2.62,0,4.83-1.41,6.94-4.08,1.22.98,1.78,3,1.78,4.88ZM343.78,174.04c0,1.22.19,2.34.47,3.33,2.39-1.41,3.56-3.8,3.56-6.14,0-1.22-.33-2.16-1.36-2.16-1.92,0-2.67,2.86-2.67,4.97Z"/>
    <path class="cls-4" d="M375.01,180.37c-3.89-1.83-5.53-5.44-4.92-9.66,2.67.47,6.33-1.45,6.33-4.03,0-1.74-1.08-2.06-2.02-2.06-3.09,0-4.13,3.94-4.31,6.1-6.75-.89-9.85-4.69-9.85-8.02,0-5.02,6.71-7.08,13.93-7.08,9.1,0,15.05,3.05,15.05,8.67,0,7.88-11.25,14.96-14.21,16.08ZM375.01,192.18c3.94,0,6.33-2.58,6.33-5.53,0-3.14-2.77-5.16-6.33-6.28-4.03,1.17-6.33,3.42-6.33,6.33s2.44,5.49,6.33,5.49Z"/>
  </g>
  <path class="cls-1" d="M141.83,64.95c-1.11-12.22-18.51-27.8-24.7-33.35-5.53-4.95-14.25-12.76-23.93-16.1-23.97-8.28-24.78,20.78-47.66,11.51-10.13-4.1-18.36-13.2-20.48-10.81-2.45,2.76,8.77,14.74,11.14,26.61,3.91,19.56-21.34,13.28-22.14,32.81-.8,19.4,22.92,55.15,37.17,60.49,8.49,3.18,15.75-3.64,13.59-12.79-2.18-9.24-12.54-14.75-17.53-24.61-14.8-29.24,32.89-66.73,60.49-44.79,8.7,6.91,13.41,18.16,21.79,21.11,7.16,2.52,12.95-2.44,12.26-10.07Z"/>
  <path class="cls-2" d="M223.35.63c-3.16-4.57-55.45,16.76-53,35,1.2,8.94,15.18,14.36,22,17,13.46,5.21,30.92,6.2,33,1,2.23-5.59-15.92-11.83-17-26-1.11-14.6,16.92-24.23,15-27Z"/>
  <path class="cls-2" d="M378.62,196.58c10.86,5.74,4.28,96.32-51.01,109.94-35.01,8.62-78.77-16.27-84.66-47.73-4.8-25.63,15.93-53.56,22.91-51.89,6.15,1.48,1.24,25.86,10.64,29.54,12.03,4.71,33.3-30.05,40.72-26.04,6.58,3.56-6.62,32.77-.08,36.89,10.03,6.33,51.2-56.15,61.48-50.72Z"/>
</svg>