<?xml version="1.0" encoding="UTF-8"?>
<svg id="Layer_1" data-name="Layer 1" xmlns="http://www.w3.org/2000/svg" viewBox="0 0 405.03 296.69">
  <defs>
    <style>
      .cls-1 {
        fill: #febc32;
      }

      .cls-2 {
        fill: #c5c77c;
      }

      .cls-3 {
        fill: #163913;
      }

      .cls-4 {
        fill: #2c180d;
      }

      .cls-5 {
        fill: #e3e7c8;
      }
    </style>
  </defs>
  <path class="cls-3" d="M16.48,9.13C-12.73,30.71-.46,88.75,32.51,108.92c12.19,7.46,31.13,12.15,37.12,6.05,11.03-11.23-26.5-54.32-22.78-56.7,4.21-2.7,45.56,56.84,62.43,50.65,11.9-4.37,13.68-42.21-6.75-59.73-6.26-5.37-13.73-8.08-18.56-9.83-22.68-8.22-41.72-3.82-42.18-6.05-.78-3.74,54.12-10.91,53.99-18.9-.13-7.78-52.61-25.02-79.3-5.29Z"/>
  <path class="cls-2" d="M42.8,272.03c.91,5.48,57.3,8.51,62.87-9.04,2.73-8.6-7.6-19.46-12.64-24.76-9.95-10.46-25.32-18.81-29.42-14.98-4.4,4.11,9.35,17.49,4.28,30.77-5.22,13.67-25.64,14.69-25.09,18.02Z"/>
  <path class="cls-5" d="M64.6,264.59c.47,2.82,29.49,4.38,32.36-4.65,1.41-4.43-3.91-10.02-6.51-12.75-5.12-5.38-13.03-9.68-15.14-7.71-2.27,2.11,4.81,9,2.2,15.84-2.69,7.04-13.2,7.56-12.91,9.28Z"/>
  <path class="cls-2" d="M5.44,296.57c8.35,3.64,62.53-74.89,55.54-80.18-3.45-2.61-22.23,12.35-33.5,25.16-9.18,10.44-13.62,19.74-14.72,22.12-5.42,11.7-11.2,31.21-7.32,32.89Z"/>
  <path class="cls-5" d="M15.96,279.59c5.15,2.24,38.56-46.19,34.25-49.45-2.13-1.61-13.71,7.62-20.66,15.52-5.66,6.44-8.4,12.17-9.08,13.64-3.34,7.22-6.91,19.25-4.51,20.29Z"/>
  <path class="cls-2" d="M373.5,143.46c12.25.88,54.62-79.45,14.92-120.28-25.14-25.85-75.44-27.89-97.09-4.32-17.64,19.21-14.84,53.87-8.03,56.15,6,2,14.74-21.29,24.67-19.43,12.7,2.38,12.34,43.12,20.76,43.65,7.46.46,11.74-31.3,19.46-31.34,11.86-.06,13.72,74.74,25.31,75.57Z"/>
  <path class="cls-3" d="M344.88,277.86c22.47-2.69,37.2-39.22,27.89-61.18-3.44-8.12-11.28-16.87-16.49-15.38-9.59,2.74-6.24,39.04-8.97,39.18-3.09.16-2.44-46.61-13.15-48.58-7.56-1.39-22.09,19.27-18.12,35.7,1.21,5.03,3.99,8.96,5.79,11.51,8.44,11.94,19.61,15.61,19.04,17.01-.96,2.35-31.15-11.35-33.97-6.82-2.74,4.41,17.45,31.03,37.98,28.57Z"/>
  <path class="cls-1" d="M283.85,168.2c-13.57,44.65-145.05,47.02-168.41,3.97-14.4-26.53,9.48-75.45,31.78-75.62,22.76-.17,39.67,50.49,55.9,47.05,16.12-3.42,6.4-54.86,22.25-59.44,18.22-5.26,68.23,51.98,58.49,84.03Z"/>
  <g>
    <path class="cls-4" d="M116.07,159.43c.3,11.94-7.74,19.92-22.62,19.92s-22.68-8.28-22.26-19.92c.3-9,.24-4.62,0-14.7-.12-4.26-.18-6.66-1.56-9.54,3.36-1.8,7.38-2.64,10.56-2.64,6.84,0,9.84,4.56,9.78,10.92,0,.72-.24,14.28.06,19.68.12,2.22,1.44,4.32,3.54,4.26,2.34-.06,3.54-2.16,3.66-4.26.36-5.76.06-13.2.12-18.42.06-4.2-.18-6.66-1.56-9.54,3.36-1.8,7.38-2.64,10.56-2.64,6.84,0,9.72,4.56,9.72,12.18,0,4.14-.12,9.54,0,14.7Z"/>
    <path class="cls-4" d="M130.47,155.59c-4.56-4.92-9.6-10.02-9.6-15.78,0-6.18,5.76-7.26,9.78-7.26,5.34,0,10.26,1.86,13.5,5.94-2.4,1.92-3.6,4.38-3.6,7.02,0,3,1.38,5.52,3.54,5.52,1.98,0,3.72-2.16,3.72-5.4,0-2.7-1.32-5.16-3.66-7.14,3.48-4.02,7.74-5.94,13.74-5.94,5.58,0,9.9,1.86,9.9,7.62s-4.26,11.4-10.08,15.42c5.4,5.28,11.16,9.3,11.16,15.54s-5.88,8.22-10.68,8.22c-5.22,0-11.04-2.22-13.92-5.94,2.16-2.04,3.66-5.16,3.66-8.28,0-3.48-1.8-5.46-3.72-5.46-2.16,0-3.54,2.52-3.54,5.64s1.38,6.12,3.6,8.1c-2.64,3.3-8.58,5.94-13.74,5.94-5.88,0-10.8-3.36-10.8-8.34,0-4.32,3.6-9.06,10.74-15.42Z"/>
    <path class="cls-4" d="M245.06,153.01c0,4.2-2.46,8.76-7.8,9.12l-3.24.18c-2.7,8.52-8.4,17.04-28.14,17.04-9.96,0-20.82-5.28-20.82-14.52,0-4.32,1.8-10.02,10.2-12.42-4.2-1.44-6.84-5.82-6.84-9.48,0-8.52,8.7-12.48,18.36-12.48,8.88,0,18.06,3,18.06,9.6,0,4.56-3.9,6.42-9.78,6.96-1.2-4.32-3.3-6.18-6.48-6.18-2.22,0-3.96.78-3.96,2.88,0,3.18,5.64,3.9,10.44,3.3.6,2.34.78,6.24,0,7.74-6.54.96-10.98,4.2-10.98,7.98,0,3.18,2.28,5.34,6.66,5.34s7.92-1.38,9.96-5.28c-1.14,0-2.28.06-3.36.12-1.32.06-2.7.42-3.3.9-1.74-2.28-.96-6.24,1.02-9.06l21.36-4.44c3-.72,5.28-1.74,6.72-2.7,1.44.78,1.92,3.6,1.92,5.4Z"/>
    <path class="cls-4" d="M304.82,159.43c.3,11.94-7.74,19.92-22.62,19.92s-22.68-8.28-22.26-19.92c.3-9,.24-4.62,0-14.7-.12-4.26-.18-6.66-1.56-9.54,3.36-1.8,7.38-2.64,10.56-2.64,6.84,0,9.84,4.56,9.78,10.92,0,.72-.24,14.28.06,19.68.12,2.22,1.44,4.32,3.54,4.26,2.34-.06,3.54-2.16,3.66-4.26.36-5.76.06-13.2.12-18.42.06-4.2-.18-6.66-1.56-9.54,3.36-1.8,7.38-2.64,10.56-2.64,6.84,0,9.72,4.56,9.72,12.18,0,4.14-.12,9.54,0,14.7Z"/>
    <path class="cls-4" d="M335.96,176.71c-3.36,1.8-7.38,2.64-10.56,2.64-7.38,0-10.8-4.56-10.74-10.92.12-10.08.36-15,.12-23.7-1.08-.36-2.52-.48-3.84-.48-2.16-2.76-1.92-6.78-.78-9.84,4.44-1.5,10.32-1.86,14.22-1.86,5.4,0,9.9,2.7,9.9,7.44,0,6.54-.36,20.46.12,27.18.24,3.9.48,6.54,1.56,9.54Z"/>
  </g>
</svg>