<?xml version="1.0" encoding="UTF-8"?>
<svg id="Layer_1" data-name="Layer 1" xmlns="http://www.w3.org/2000/svg" viewBox="0 0 408.38 296.69">
  <defs>
    <style>
      .cls-1 {
        fill: #febc32;
      }

      .cls-2 {
        fill: #c5c77c;
      }

      .cls-3 {
        fill: #163913;
      }

      .cls-4 {
        fill: #2c180d;
      }

      .cls-5 {
        fill: #e3e7c8;
      }
    </style>
  </defs>
  <path class="cls-3" d="M391.9,287.57c29.2-21.59,16.94-79.62-16.03-99.8-12.19-7.46-31.13-12.15-37.12-6.05-11.03,11.23,26.5,54.32,22.78,56.7-4.21,2.7-45.56-56.84-62.43-50.65-11.9,4.37-13.68,42.21,6.75,59.73,6.26,5.37,13.73,8.08,18.56,9.83,22.68,8.22,41.72,3.82,42.18,6.05.78,3.74-54.12,10.91-53.99,18.9.13,7.78,52.61,25.02,79.3,5.29Z"/>
  <path class="cls-2" d="M365.58,24.66c-.91-5.48-57.3-8.51-62.87,9.04-2.73,8.6,7.6,19.46,12.64,24.76,9.95,10.46,25.32,18.81,29.42,14.98,4.4-4.11-9.35-17.49-4.28-30.77,5.22-13.67,25.64-14.69,25.09-18.02Z"/>
  <path class="cls-5" d="M343.77,32.1c-.47-2.82-29.49-4.38-32.36,4.65-1.41,4.43,3.91,10.02,6.51,12.75,5.12,5.38,13.03,9.68,15.14,7.71,2.27-2.11-4.81-9-2.2-15.84,2.69-7.04,13.2-7.56,12.91-9.28Z"/>
  <path class="cls-2" d="M402.94.12c-8.35-3.64-62.53,74.89-55.54,80.18,3.45,2.61,22.23-12.35,33.5-25.16,9.18-10.44,13.62-19.74,14.72-22.12,5.42-11.7,11.2-31.21,7.32-32.89Z"/>
  <path class="cls-5" d="M392.42,17.11c-5.15-2.24-38.56,46.19-34.25,49.45,2.13,1.61,13.71-7.62,20.66-15.52,5.66-6.44,8.4-12.17,9.08-13.64,3.34-7.22,6.91-19.25,4.51-20.29Z"/>
  <path class="cls-2" d="M.12,248.56c-3.39,11.81,66.47,69.84,114.61,39.41,30.48-19.27,42.85-68.06,24.26-94.11-15.15-21.22-49.65-25.63-53.28-19.44-3.2,5.46,17.79,18.81,13.92,28.15-4.95,11.94-44.74,3.18-46.99,11.31-1.99,7.2,28.21,17.94,26.65,25.51-2.39,11.61-75.96-2-79.17,9.18Z"/>
  <path class="cls-3" d="M35.31,50.71c.44,27.4,42.6,49.7,70.23,41.22,10.21-3.14,21.73-11.49,20.58-17.95-2.11-11.9-46.25-12.39-46.08-15.69.2-3.74,56.45,2.87,60.16-9.79,2.62-8.93-20.46-29.01-40.75-26.28-6.22.84-11.3,3.7-14.59,5.55-15.43,8.68-21.25,21.67-22.87,20.81-2.72-1.45,17.55-36.12,12.45-40.07-4.97-3.85-39.55,17.15-39.15,42.19Z"/>
  <path class="cls-1" d="M309.94,162.78c-13.57,44.65-145.05,47.02-168.41,3.97-14.4-26.53,9.48-75.45,31.78-75.62,22.76-.17,39.67,50.49,55.9,47.05,16.12-3.42,6.4-54.86,22.25-59.44,18.22-5.26,68.23,51.98,58.49,84.03Z"/>
  <g>
    <path class="cls-4" d="M37.86,164.27c-3.63-2.99-8.18-9.22-8.18-17.24,0-3.94,2.38-6.1,5.86-6.1,3.02,0,5.22,1.22,6.47,4.09-1.16,2.29-1.86,4.91-1.86,7.93,0,2.81.64,4.55,2.08,4.55,1.28,0,2.08-1.74,2.08-4.55,0-3.02-.92-5.65-2.29-7.93,1.16-2.87,3.45-4.09,5.68-4.09,4.36,0,6.65,2.17,6.65,6.1,0,8.03-4.67,14.25-7.93,17.24-1.43.3-2.84.46-4.27.46s-2.84-.15-4.27-.46Z"/>
    <path class="cls-4" d="M67.8,163.38c-1.71.92-3.75,1.34-5.37,1.34-3.75,0-5.49-2.32-5.46-5.55.03-2.93.18-4.64.12-6.87-.06-2.29-.12-3.45-.76-5.25,1.71-.95,4.06-1.56,5.68-1.56,2.75,0,5.04,1.37,5.04,3.78,0,3.33-.21,6.96-.03,9.25.15,1.98.31,3.33.79,4.85ZM57.18,141.2c0-1.89,1.62-3.14,4.85-3.14s4.85,1.25,4.85,3.14c0,2.59-2.96,3.39-4.88,3.39-2.08,0-4.82-.92-4.82-3.39Z"/>
    <path class="cls-4" d="M91.91,157.83c0,2.29.12,2.99.55,4.85-1.53,1.65-2.9,2.04-4.97,2.04-4.64,0-4.76-2.17-5.98-4.42,1.65-3.27,2.23-9.83,0-9.83-1.01,0-1.83,1.37-1.83,3.51s.76,4.33,1.83,6.32c-1.46,3.75-4.03,4.39-5.4,4.39-3.27,0-6.17-3.69-6.17-9.22,0-4.64,2.04-9.98,8.06-9.98,1.01,0,3.51.46,4.55,2.44-.4-2.72-.43-3.91-.43-5.4,0-1.86,1.1-3.14,4.27-3.14,2.2,0,4.27.55,6.07,2.04-.43,1.86-.55,2.56-.55,4.85v11.54Z"/>
    <path class="cls-4" d="M115.04,159.05c0,4.52-5.68,5.68-9.74,5.68-7.14,0-10.68-4.24-10.68-9.25,0-5.71,4.94-9.98,12.02-9.98,4.73,0,8.58,1.92,8.58,6.47,0,1.37-.52,2.81-1.34,3.91-2.5.55-6.56.7-9.09-.79.67,2.14,2.35,3.45,4.58,3.45,1.71,0,3.14-.92,4.52-2.66.79.64,1.16,1.95,1.16,3.17ZM104.48,152.92c0,.79.12,1.53.31,2.17,1.56-.92,2.32-2.47,2.32-4,0-.79-.21-1.4-.89-1.4-1.25,0-1.74,1.86-1.74,3.24Z"/>
    <path class="cls-4" d="M117.18,154.81c0-5.13,3.6-9.31,11.6-9.31s11.6,4.18,11.6,9.31c0,5.49-3.6,9.92-11.6,9.92s-11.6-4.42-11.6-9.92ZM130.67,154.81c0-2.56-.73-4.67-1.89-4.67s-1.89,2.11-1.89,4.67c0,2.93.73,5.28,1.89,5.28s1.89-2.35,1.89-5.28Z"/>
    <path class="cls-4" d="M178.83,151.33c0,2.14-1.25,4.46-3.97,4.64l-1.65.09c-1.37,4.33-4.27,8.67-14.31,8.67-5.07,0-10.59-2.69-10.59-7.39,0-2.2.92-5.1,5.19-6.32-2.14-.73-3.48-2.96-3.48-4.82,0-4.33,4.43-6.35,9.34-6.35,4.52,0,9.19,1.53,9.19,4.88,0,2.32-1.98,3.27-4.97,3.54-.61-2.2-1.68-3.14-3.3-3.14-1.13,0-2.01.4-2.01,1.46,0,1.62,2.87,1.98,5.31,1.68.31,1.19.4,3.17,0,3.94-3.33.49-5.58,2.14-5.58,4.06,0,1.62,1.16,2.72,3.39,2.72s4.03-.7,5.07-2.69c-.58,0-1.16.03-1.71.06-.67.03-1.37.21-1.68.46-.88-1.16-.49-3.17.52-4.61l10.86-2.26c1.53-.37,2.69-.88,3.42-1.37.73.4.98,1.83.98,2.75Z"/>
    <path class="cls-4" d="M202.11,141.38c3.27,2.99,7.94,9.22,7.94,17.24,0,3.94-2.29,6.1-6.65,6.1-2.23,0-4.52-1.68-5.68-5.62,1.37-1.86,2.29-3.97,2.29-6.41,0-2.81-.79-4.55-2.08-4.55-1.43,0-2.08,1.74-2.08,4.55,0,2.44.7,4.55,1.86,6.41-1.25,3.94-3.45,5.62-6.47,5.62-3.48,0-5.86-2.17-5.86-6.1,0-8.03,4.55-14.25,8.18-17.24,1.43-.31,2.84-.46,4.27-.46s2.84.15,4.27.46Z"/>
    <path class="cls-4" d="M216.92,145.5c2.75,0,5.49,1.25,6.41,5.16-.76,2.29-.85,4.18-.79,8.18.03,2.04.06,3.14.52,4.55-1.5.92-3.14,1.34-4.82,1.34-3.78,0-5.86-2.17-5.74-5.25.21-5.19.18-4.46.21-8.33,0-1.71,0-2.75-.67-3.97,1.22-1.16,3.11-1.68,4.88-1.68ZM236.2,163.38c-1.71.92-3.75,1.34-5.37,1.34-3.75,0-5.4-2.32-5.37-5.55,0-.4.06-4.61-.03-6.35-.06-1.19-.24-2.29-2.11-2.17,1.34-4.15,4.49-5.16,6.65-5.16,3.23,0,5.55,2.23,5.43,5.86-.15,4.39-.12,2.26,0,7.17.06,2.17.09,3.39.79,4.85Z"/>
    <path class="cls-4" d="M249.7,163.38c-1.71.92-3.75,1.34-5.37,1.34-3.75,0-5.49-2.32-5.46-5.55.03-2.93.18-4.64.12-6.87-.06-2.29-.12-3.45-.76-5.25,1.71-.95,4.06-1.56,5.68-1.56,2.75,0,5.04,1.37,5.04,3.78,0,3.33-.21,6.96-.03,9.25.15,1.98.31,3.33.79,4.85ZM239.08,141.2c0-1.89,1.62-3.14,4.85-3.14s4.85,1.25,4.85,3.14c0,2.59-2.96,3.39-4.88,3.39-2.08,0-4.82-.92-4.82-3.39Z"/>
    <path class="cls-4" d="M256.62,145.5c2.75,0,5.49,1.25,6.41,5.16-.76,2.29-.85,4.18-.79,8.18.03,2.04.06,3.14.52,4.55-1.5.92-3.14,1.34-4.82,1.34-3.78,0-5.86-2.17-5.74-5.25.21-5.19.18-4.46.21-8.33,0-1.71,0-2.75-.67-3.97,1.22-1.16,3.11-1.68,4.88-1.68ZM274.81,163.38c-1.71.92-3.75,1.34-5.37,1.34-3.33,0-4.79-2.32-4.76-5.55,0-.4.12-4.61.15-6.35.03-1.28.06-2.32-1.8-2.17,1.22-4.15,4.09-5.16,6.04-5.16,2.93,0,5.04,1.95,4.91,5.16-.37,1.86-.46,4.06-.27,7.87.09,2.17.4,3.39,1.1,4.85ZM286.87,163.38c-1.71.92-3.75,1.34-5.37,1.34-3.75,0-5.37-2.32-5.37-5.55,0-.4.06-4.61-.03-6.35-.06-1.19-.24-2.29-2.11-2.17,1.34-4.15,4.49-5.16,6.65-5.16,3.24,0,5.55,2.23,5.43,5.86-.15,4.39-.15,2.26,0,7.17.06,2.17.09,3.39.79,4.85Z"/>
    <path class="cls-4" d="M294.41,156.21c2.14,0,4.3-.79,5.86-2.59-.21,4.97-1.89,11.11-7.05,11.11-2.44,0-4.73-1.28-4.73-4.49,0-1.92.82-3.66,2.81-5.19.85.92,1.68,1.16,3.11,1.16ZM310.67,163.38c-1.68,1.01-3.94,1.34-5.28,1.34-3.72,0-5.13-2.17-5.13-5.25v-5.86c-.98-.31-1.83-.49-3.08-.49-2.17,0-4.36.67-5.89,1.92-1.4-1.59-1.56-3.63-1.28-4.97.64-3.66,4.76-4.58,8.54-4.58,9.22,0,11.44,3.88,11.32,9.4-.03,1.22-.03,2.41,0,3.63.03,1.62.18,3.24.79,4.85Z"/>
    <path class="cls-4" d="M326.76,150.02h-3.45l-.03,6.23c0,1.83,1.43,2.44,2.99,1.34.58.88.82,1.71.82,2.44,0,3.42-3.69,4.7-6.81,4.7-3.69,0-6.65-2.32-6.62-6.07.03-3.11.09-5.62.06-8.64h-2.11c0-4.36,4.97-8.18,8.36-8.18,1.83,0,3.66,1.1,3.66,4.09v.03h4.42c.58,1.5-.15,3.39-1.31,4.06Z"/>
    <path class="cls-4" d="M341.04,163.38c-1.71.92-3.75,1.34-5.37,1.34-3.75,0-5.49-2.32-5.46-5.55.03-2.93.18-4.64.12-6.87-.06-2.29-.12-3.45-.76-5.25,1.71-.95,4.06-1.56,5.68-1.56,2.75,0,5.04,1.37,5.04,3.78,0,3.33-.21,6.96-.03,9.25.15,1.98.31,3.33.79,4.85ZM330.42,141.2c0-1.89,1.62-3.14,4.85-3.14s4.85,1.25,4.85,3.14c0,2.59-2.96,3.39-4.88,3.39-2.08,0-4.82-.92-4.82-3.39Z"/>
    <path class="cls-4" d="M342.88,154.81c0-5.13,3.6-9.31,11.6-9.31s11.6,4.18,11.6,9.31c0,5.49-3.6,9.92-11.6,9.92s-11.6-4.42-11.6-9.92ZM356.36,154.81c0-2.56-.73-4.67-1.89-4.67s-1.89,2.11-1.89,4.67c0,2.93.73,5.28,1.89,5.28s1.89-2.35,1.89-5.28Z"/>
    <path class="cls-4" d="M372.94,145.5c2.75,0,5.49,1.25,6.41,5.16-.76,2.29-.85,4.18-.79,8.18.03,2.04.06,3.14.52,4.55-1.5.92-3.14,1.34-4.82,1.34-3.79,0-5.86-2.17-5.74-5.25.21-5.19.18-4.46.21-8.33,0-1.71,0-2.75-.67-3.97,1.22-1.16,3.11-1.68,4.88-1.68ZM392.22,163.38c-1.71.92-3.75,1.34-5.37,1.34-3.75,0-5.4-2.32-5.37-5.55,0-.4.06-4.61-.03-6.35-.06-1.19-.24-2.29-2.11-2.17,1.34-4.15,4.49-5.16,6.65-5.16,3.23,0,5.55,2.23,5.43,5.86-.15,4.39-.12,2.26,0,7.17.06,2.17.09,3.39.79,4.85Z"/>
  </g>
</svg>